
<svg width="145px" height="145px" viewBox="0 0 145 145" version="1.1" xmlns="http://www.w3.org/2000/svg" xmlns:xlink="http://www.w3.org/1999/xlink">
    <!-- Generator: Sketch 51.2 (57519) - http://www.bohemiancoding.com/sketch -->
    <desc>Created with Sketch.</desc>
    <defs>
        <polygon id="path-1" points="0.0005 0.099 144.901 0.099 144.901 144.9995 0.0005 144.9995"></polygon>
        <polygon id="path-3" points="0 145.901 144.901 145.901 144.901 1 0 1"></polygon>
    </defs>
    <g id="Page-1" stroke="none" stroke-width="1" fill="none" fill-rule="evenodd">
        <g id="Group-75" transform="translate(0.000000, -1.000000)">
            <g id="Group-3" transform="translate(0.000000, 0.901000)">
                <mask id="mask-2" fill="white">
                    <use xlink:href="#path-1"></use>
                </mask>
                <g id="Clip-2"></g>
                <path d="M144.9015,72.5495 C144.9015,112.5635 112.4635,144.9995 72.4505,144.9995 C32.4375,144.9995 0.0005,112.5635 0.0005,72.5495 C0.0005,32.5355 32.4375,0.0985 72.4505,0.0985 C112.4635,0.0985 144.9015,32.5355 144.9015,72.5495" id="Fill-1" fill="#FEFEFE" mask="url(#mask-2)"></path>
            </g>
            <path d="M114.8394,101.4271 C114.0334,101.4271 113.6584,100.9871 113.4854,100.6161 C113.3194,100.2611 113.3154,99.9161 113.3564,99.7331 C113.4284,99.7421 113.5084,99.7491 113.5964,99.7491 C115.7564,99.7481 119.3794,96.3301 119.3794,73.4411 C119.3794,50.5511 115.7564,47.1331 113.5964,47.1331 C113.5004,47.1331 113.4124,47.1401 113.3354,47.1521 C113.3154,46.9881 113.3144,46.6321 113.4854,46.2651 C113.6584,45.8951 114.0334,45.4551 114.8394,45.4551 C115.1744,45.4551 115.5554,45.5311 115.9714,45.6831 C118.0544,46.4411 121.5474,51.0551 121.5474,73.4411 C121.5474,95.8271 118.0544,100.4421 115.9714,101.1991 C115.5554,101.3511 115.1744,101.4271 114.8394,101.4271" id="Fill-4" fill="#FABA1C"></path>
            <path d="M114.839,44.9549 C112.714,44.9549 112.496,47.4599 113.182,47.7089 C113.182,47.7089 113.338,47.6329 113.596,47.6329 C114.907,47.6329 118.879,49.5989 118.879,73.4409 C118.879,97.2819 114.907,99.2489 113.596,99.2489 C113.338,99.2489 113.182,99.1719 113.182,99.1719 C112.496,99.4219 112.715,101.9269 114.839,101.9269 C115.213,101.9269 115.645,101.8499 116.143,101.6689 C118.633,100.7629 122.048,95.4569 122.048,73.4409 C122.048,51.4249 118.633,46.1199 116.143,45.2129 C115.646,45.0329 115.213,44.9549 114.839,44.9549 M114.839,45.9549 C115.116,45.9549 115.44,46.0209 115.801,46.1529 C120.67,47.9249 121.048,67.4879 121.048,73.4409 C121.048,79.3949 120.67,98.9569 115.8,100.7289 C115.44,100.8609 115.116,100.9269 114.839,100.9269 C114.473,100.9269 114.211,100.8109 114.036,100.5719 C113.958,100.4629 113.907,100.3449 113.876,100.2349 C116.68,99.9309 119.879,94.8829 119.879,73.4409 C119.879,51.9989 116.68,46.9519 113.876,46.6479 C113.906,46.5379 113.957,46.4189 114.036,46.3109 C114.21,46.0709 114.473,45.9549 114.839,45.9549" id="Fill-6" fill="#311922"></path>
            <path d="M113.5968,46.6327 C113.1518,46.6327 112.8478,46.7587 112.7388,46.8137 L112.5918,46.8867 L112.4748,47.0027 C98.8558,60.6217 73.4008,60.8177 73.1458,60.8177 L66.7218,60.8177 C65.9758,59.6297 65.0458,59.3597 64.3558,59.3597 L32.3928,59.3597 C31.9818,59.3597 31.5968,59.5197 31.3058,59.8097 C31.0158,60.1007 30.8558,60.4867 30.8558,60.8967 L30.8558,61.1157 L26.2188,61.7987 C25.5468,61.8977 24.9958,62.3597 24.7808,63.0037 L24.6448,63.4097 L23.9788,63.8837 L23.3318,63.8837 C22.5168,63.8837 21.8528,64.5477 21.8528,65.3617 L21.8538,73.4417 L21.8528,81.5197 C21.8538,82.3357 22.5168,82.9987 23.3318,82.9987 L23.9788,82.9987 L24.6448,83.4717 L24.7808,83.8787 C24.9948,84.5227 25.5468,84.9847 26.2188,85.0847 L30.8558,85.7657 L30.8558,85.9857 C30.8558,86.8337 31.5458,87.5227 32.3918,87.5227 L63.6768,87.5227 L64.3558,87.5227 C65.0438,87.5227 65.9728,87.2537 66.7178,86.0647 L73.1468,86.0647 C73.4008,86.0647 98.8558,86.2597 112.4748,99.8807 L112.5918,99.9967 L112.7388,100.0687 C112.8488,100.1237 113.1518,100.2497 113.5968,100.2497 C114.7518,100.2497 116.3988,99.4437 117.6778,95.6027 C119.1388,91.2187 119.8788,83.7627 119.8788,73.4417 C119.8788,51.2837 116.4628,46.6327 113.5968,46.6327 M113.5968,47.6327 C114.9078,47.6327 118.8788,49.6007 118.8788,73.4417 C118.8788,97.2837 114.9078,99.2497 113.5968,99.2497 C113.3378,99.2497 113.1818,99.1737 113.1818,99.1737 C99.1008,85.0907 73.1468,85.0647 73.1468,85.0647 L66.1248,85.0647 L66.1248,85.0607 C65.7038,85.9677 65.1338,86.5227 64.3558,86.5227 L63.6768,86.5227 L32.3918,86.5227 C32.0968,86.5227 31.8558,86.2827 31.8558,85.9857 L31.8558,85.4357 C31.8558,85.1297 31.6318,84.8697 31.3288,84.8257 L26.3648,84.0937 C26.0688,84.0507 25.8238,83.8447 25.7288,83.5617 L25.5548,83.0397 C25.5138,82.9147 25.4318,82.8047 25.3248,82.7277 L24.4878,82.1337 C24.3638,82.0467 24.2158,81.9987 24.0648,81.9987 L23.3318,81.9987 C23.0678,81.9987 22.8528,81.7847 22.8528,81.5197 L22.8538,73.4417 L22.8528,65.3617 C22.8528,65.0977 23.0678,64.8837 23.3318,64.8837 L24.0648,64.8837 C24.2158,64.8837 24.3638,64.8367 24.4878,64.7487 L25.3248,64.1537 C25.4318,64.0767 25.5138,63.9677 25.5548,63.8427 L25.7288,63.3197 C25.8238,63.0367 26.0688,62.8317 26.3648,62.7877 L31.3288,62.0567 C31.6318,62.0127 31.8558,61.7527 31.8558,61.4467 L31.8558,60.8967 C31.8558,60.5997 32.0968,60.3597 32.3928,60.3597 L64.3558,60.3597 C65.1338,60.3597 65.7058,60.9107 66.1258,61.8177 L73.1468,61.8177 C73.1468,61.8177 99.1008,61.7917 113.1828,47.7097 C113.1828,47.7097 113.3378,47.6327 113.5968,47.6327" id="Fill-8" fill="#311922"></path>
            <path d="M59.4083,93.0541 C59.3253,93.0241 59.2613,92.9571 59.2343,92.8721 L58.4153,90.2321 C58.3733,90.0961 58.4373,89.9511 58.5653,89.8911 L60.3423,89.0581 C60.4113,89.0261 60.4903,89.0231 60.5593,89.0481 C60.5813,89.0561 60.6013,89.0661 60.6193,89.0781 L64.7853,91.8491 C65.0463,92.0231 65.2263,92.3001 65.2763,92.6101 C65.3263,92.9201 65.2453,93.2401 65.0523,93.4891 L64.1973,94.5881 C64.1223,94.6861 63.9923,94.7231 63.8763,94.6811 L59.4083,93.0541 Z" id="Fill-10" fill="#FABA1C"></path>
            <path d="M32.3922,87.0228 C31.8212,87.0228 31.3562,86.5578 31.3562,85.9858 L31.3562,85.4358 C31.3562,85.3768 31.3142,85.3288 31.2572,85.3208 L26.2912,84.5888 C25.8072,84.5178 25.4102,84.1848 25.2542,83.7198 L25.0802,83.1978 L24.1982,82.5418 C24.1582,82.5138 24.1112,82.4988 24.0642,82.4988 L23.3312,82.4988 C22.7922,82.4988 22.3532,82.0598 22.3532,81.5198 L22.3532,65.3618 C22.3532,64.8228 22.7922,64.3838 23.3312,64.3838 L24.0642,64.3838 C24.1112,64.3838 24.1592,64.3688 24.1972,64.3408 L25.0352,63.7458 L25.2552,63.1618 C25.4092,62.6978 25.8072,62.3648 26.2912,62.2938 L31.2562,61.5628 C31.3132,61.5538 31.3562,61.5038 31.3562,61.4468 L31.3562,60.8968 C31.3562,60.3248 31.8212,59.8598 32.3922,59.8598 L64.3562,59.8598 C67.7972,59.8598 67.7972,67.7098 67.7972,73.4408 C67.7972,79.1728 67.7972,87.0228 64.3562,87.0228 L32.3922,87.0228 Z" id="Fill-12" fill="#E51E41"></path>
            <path d="M64.356,59.3597 L45.46,59.3597 L32.392,59.3597 C31.545,59.3597 30.856,60.0487 30.856,60.8967 L30.856,61.1157 L26.219,61.7977 C25.546,61.8977 24.995,62.3597 24.78,63.0037 L24.645,63.4097 L23.979,63.8837 L23.332,63.8837 C22.517,63.8837 21.853,64.5467 21.853,65.3617 L21.853,73.4417 L21.853,81.5197 C21.853,82.3357 22.517,82.9987 23.332,82.9987 L23.979,82.9987 L24.645,83.4717 L24.78,83.8787 C24.995,84.5227 25.546,84.9847 26.219,85.0847 L30.856,85.7657 L30.856,85.9857 C30.856,86.8337 31.545,87.5227 32.392,87.5227 L41.08,87.5227 L45.892,87.5227 L63.677,87.5227 L64.356,87.5227 C68.297,87.5227 68.297,79.7137 68.297,73.4417 C68.297,67.1677 68.297,59.3597 64.356,59.3597 M64.356,60.3597 C67.297,60.3597 67.297,68.2407 67.297,73.4417 C67.297,78.6407 67.297,86.5227 64.356,86.5227 L63.677,86.5227 L45.892,86.5227 L41.08,86.5227 L32.392,86.5227 C32.096,86.5227 31.856,86.2827 31.856,85.9857 L31.856,85.4357 C31.856,85.1297 31.631,84.8697 31.329,84.8257 L26.364,84.0937 C26.069,84.0507 25.823,83.8447 25.729,83.5617 L25.555,83.0397 C25.513,82.9147 25.432,82.8047 25.324,82.7287 L24.487,82.1337 C24.364,82.0467 24.216,81.9987 24.064,81.9987 L23.332,81.9987 C23.067,81.9987 22.853,81.7847 22.853,81.5197 L22.853,73.4417 L22.853,65.3617 C22.853,65.0977 23.067,64.8837 23.332,64.8837 L24.064,64.8837 C24.216,64.8837 24.364,64.8367 24.487,64.7487 L25.324,64.1537 C25.432,64.0767 25.513,63.9677 25.555,63.8427 L25.729,63.3197 C25.823,63.0367 26.069,62.8317 26.364,62.7877 L31.329,62.0567 C31.631,62.0127 31.856,61.7527 31.856,61.4467 L31.856,60.8967 C31.856,60.5997 32.096,60.3597 32.392,60.3597 L45.46,60.3597 L64.356,60.3597" id="Fill-14" fill="#311922"></path>
            <polyline id="Stroke-16" stroke="#311922" stroke-linecap="square" stroke-linejoin="bevel" points="38.3634 86.5228 38.3634 73.4408 38.3634 60.3598"></polyline>
            <path d="M63.0572,116.8705 C62.1542,116.8705 61.3272,116.4155 60.8432,115.6535 L59.4342,113.4365 C59.3942,113.3725 59.3502,113.3135 59.3002,113.2595 C58.3852,112.2325 53.6842,106.6585 51.0562,97.6695 C50.7622,96.6625 49.9482,95.9115 48.9332,95.7085 L47.2892,95.8055 L45.0912,85.1125 C45.0102,84.7175 45.1102,84.3105 45.3652,83.9985 C45.6202,83.6845 45.9982,83.5055 46.4022,83.5055 L62.8392,83.5055 C63.5772,83.5055 64.1772,84.1055 64.1772,84.8435 L64.1772,86.8095 L61.1412,88.5795 C61.0222,88.6485 60.9492,88.7775 60.9492,88.9155 L60.9492,89.3365 C60.9492,89.4205 60.9742,89.5005 61.0242,89.5665 L64.3752,94.1175 C64.7012,94.5595 64.6932,95.1725 64.3562,95.6065 L63.5082,96.6955 C63.4502,96.7715 63.4342,96.8745 63.4702,96.9645 L67.4192,107.0555 C67.4562,107.1515 67.5192,107.2355 67.6012,107.2985 L68.9042,108.2945 C69.9962,109.1315 70.2582,110.6795 69.4992,111.8195 C68.5452,113.2545 66.8592,115.2455 64.2522,116.5815 C63.8842,116.7695 63.4702,116.8705 63.0572,116.8705" id="Fill-18" fill="#FEFEFE"></path>
            <path d="M62.8385,83.0052 L46.4025,83.0052 C45.8475,83.0052 45.3285,83.2512 44.9775,83.6822 C44.6275,84.1112 44.4905,84.6702 44.6015,85.2132 L46.7125,95.4802 L46.8865,96.3302 L47.7545,96.2762 L48.8715,96.2062 C49.6875,96.3832 50.3385,96.9942 50.5765,97.8092 C53.2345,106.9012 57.9995,112.5522 58.9275,113.5922 C58.9595,113.6272 58.9875,113.6642 59.0125,113.7042 L60.4215,115.9222 C60.9975,116.8292 61.9835,117.3702 63.0575,117.3702 C63.5495,117.3702 64.0425,117.2512 64.4815,117.0262 C67.1835,115.6412 68.9285,113.5802 69.9165,112.0962 C70.8205,110.7372 70.5095,108.8942 69.2075,107.8982 L67.9055,106.9012 L63.9825,96.9012 L64.7505,95.9132 C65.2245,95.3042 65.2355,94.4432 64.7775,93.8212 L61.4485,89.3002 L61.4485,88.9802 L64.1805,87.3862 L64.6765,87.0972 L64.6765,86.5232 L64.6765,84.8432 C64.6765,83.8292 63.8525,83.0052 62.8385,83.0052 M62.8385,84.0052 C63.3015,84.0052 63.6765,84.3802 63.6765,84.8432 L63.6765,86.5232 L60.8895,88.1482 C60.6165,88.3072 60.4485,88.5992 60.4485,88.9152 L60.4485,89.3362 C60.4485,89.5262 60.5095,89.7112 60.6215,89.8632 L63.9725,94.4142 C64.1675,94.6792 64.1625,95.0402 63.9615,95.3002 L63.1135,96.3892 C62.9465,96.6052 62.9045,96.8922 63.0045,97.1462 L66.9535,107.2372 C67.0245,107.4192 67.1435,107.5772 67.2985,107.6952 L68.6005,108.6922 C69.4845,109.3682 69.7005,110.6152 69.0835,111.5422 C68.1605,112.9302 66.5345,114.8502 64.0245,116.1362 C63.7155,116.2942 63.3845,116.3702 63.0575,116.3702 C62.3525,116.3702 61.6675,116.0192 61.2655,115.3862 L59.8565,113.1682 C59.8025,113.0822 59.7415,113.0022 59.6735,112.9262 C58.9335,112.0962 54.1615,106.5082 51.5355,97.5282 C51.1925,96.3522 50.2325,95.4582 49.0315,95.2182 C48.9855,95.2092 48.9395,95.2042 48.8935,95.2042 C48.8785,95.2042 48.8645,95.2052 48.8495,95.2062 L47.6915,95.2782 L45.5815,85.0122 C45.4745,84.4922 45.8715,84.0052 46.4025,84.0052 L62.8385,84.0052" id="Fill-20" fill="#311922"></path>
            <path d="M65.3385,113.391 C65.3385,114.448 64.4825,115.304 63.4255,115.304 C62.3695,115.304 61.5125,114.448 61.5125,113.391 C61.5125,112.334 62.3695,111.478 63.4255,111.478 C64.4825,111.478 65.3385,112.334 65.3385,113.391" id="Fill-22" fill="#311922"></path>
            <path d="M51.3731,86.8763 C51.3731,86.6813 51.2141,86.5223 51.0191,86.5223 C51.2141,86.5223 51.3731,86.3633 51.3731,86.1683 C51.3731,86.3633 51.5311,86.5223 51.7271,86.5223 C51.5311,86.5223 51.3731,86.6813 51.3731,86.8763 M52.0811,86.5223 C52.0811,86.1313 51.7641,85.8143 51.3731,85.8143 C50.9811,85.8143 50.6651,86.1313 50.6651,86.5223 C50.6651,86.9133 50.9811,87.2303 51.3731,87.2303 C51.7641,87.2303 52.0811,86.9133 52.0811,86.5223" id="Fill-24" fill="#311922"></path>
            <path d="M58.6168,86.8763 C58.6168,86.6813 58.4578,86.5223 58.2628,86.5223 C58.4578,86.5223 58.6168,86.3633 58.6168,86.1683 C58.6168,86.3633 58.7758,86.5223 58.9708,86.5223 C58.7758,86.5223 58.6168,86.6813 58.6168,86.8763 M59.3248,86.5223 C59.3248,86.1313 59.0078,85.8143 58.6168,85.8143 C58.2258,85.8143 57.9088,86.1313 57.9088,86.5223 C57.9088,86.9133 58.2258,87.2303 58.6168,87.2303 C59.0078,87.2303 59.3248,86.9133 59.3248,86.5223" id="Fill-26" fill="#311922"></path>
            <mask id="mask-4" fill="white">
                <use xlink:href="#path-3"></use>
            </mask>
            <g id="Clip-29"></g>
            <polygon id="Fill-28" fill="#311922" mask="url(#mask-4)" points="53.184 87.202 56.806 87.202 56.806 85.844 53.184 85.844"></polygon>
            <path d="M54.9947,85.8431 L54.9947,87.2011" id="Stroke-30" stroke="#FEFEFE" stroke-width="0.5" stroke-linecap="round" mask="url(#mask-4)"></path>
            <path d="M63.4254,113.391 L60.6504,121.015" id="Stroke-31" stroke="#FABA1C" stroke-width="1.5" stroke-linecap="round" mask="url(#mask-4)"></path>
            <path d="M68.1588,73.4413 L76.3518,73.4413" id="Stroke-32" stroke="#311922" stroke-linecap="round" mask="url(#mask-4)"></path>
            <path d="M118.8702,75.349 L112.5202,75.34" id="Stroke-33" stroke="#311922" stroke-linecap="round" mask="url(#mask-4)"></path>
            <path d="M112.5201,71.5243 L118.8701,71.5333" id="Stroke-34" stroke="#311922" stroke-linecap="round" mask="url(#mask-4)"></path>
            <path d="M109.8243,73.4413 L118.8793,73.4413" id="Stroke-35" stroke="#311922" stroke-linecap="round" mask="url(#mask-4)"></path>
            <polyline id="Stroke-36" stroke="#311922" stroke-linecap="round" mask="url(#mask-4)" points="31.881 73.4413 25.729 73.4413 24.824 73.4413"></polyline>
            <path d="M31.881,70.4598 L26.202,70.4598 C25.9,70.4598 25.609,70.5808 25.395,70.7938 L24.824,71.3648" id="Stroke-37" stroke="#311922" stroke-linecap="round" mask="url(#mask-4)"></path>
            <path d="M31.881,67.0257 L26.34,67.0257 C25.959,67.0257 25.602,67.2167 25.39,67.5347 L24.824,68.3837" id="Stroke-38" stroke="#311922" stroke-linecap="round" mask="url(#mask-4)"></path>
            <path d="M31.881,76.4222 L26.202,76.4222 C25.9,76.4222 25.609,76.3022 25.395,76.0882 L24.824,75.5172" id="Stroke-39" stroke="#311922" stroke-linecap="round" mask="url(#mask-4)"></path>
            <path d="M31.881,79.8568 L26.34,79.8568 C25.959,79.8568 25.602,79.6658 25.39,79.3478 L24.824,78.4988" id="Stroke-40" stroke="#311922" stroke-linecap="round" mask="url(#mask-4)"></path>
            <path d="M92.6959,65.8251 C91.8629,65.6781 89.5619,67.1561 87.6909,71.1681 C87.0289,72.5891 86.5989,73.8451 86.4149,74.9011 C86.3849,75.0731 86.3129,75.2271 86.2119,75.3541 C86.6359,75.3691 87.0909,75.4181 87.5749,75.5041 C87.8679,75.5561 88.1719,75.6201 88.4839,75.6991 C88.7349,75.0481 88.8959,74.5441 88.9989,74.1561 C88.1259,73.7161 87.7279,72.8411 88.0069,71.9571 C88.2899,71.0571 89.1799,70.4981 90.0769,70.6561 C90.2329,70.6841 90.3859,70.7331 90.5329,70.8011 C90.7039,70.8811 90.8739,70.9781 91.0399,71.0901 C91.3839,70.6961 91.8359,70.0281 92.3609,68.9001 C92.6089,68.3701 92.8939,67.5451 92.9529,66.8231 C92.9789,66.5061 92.9809,65.9561 92.7009,65.8251 C92.6989,65.8251 92.6979,65.8251 92.6959,65.8251 M87.0479,78.8281 C86.3029,78.9361 85.4909,79.4451 84.7669,80.9971 C84.5899,81.3771 84.5229,81.6581 84.5029,81.8381 C84.9419,81.6351 85.9179,80.8811 87.0479,78.8281 M94.2039,83.3671 C94.0949,83.5801 93.9899,83.7931 93.8899,84.0061 C93.7849,84.2331 93.4639,84.9211 93.3899,85.4991 C93.3469,85.8371 93.3999,85.9601 93.4569,86.0151 C93.6369,85.8781 93.9969,85.3811 94.1619,84.5511 C94.2339,84.1881 94.2599,83.7691 94.2039,83.3671 M93.4989,89.2371 C92.9339,89.1371 92.3469,88.9471 91.7529,88.6691 C90.6049,88.1351 89.8149,87.2561 89.4669,86.1301 C89.1779,85.2001 89.2089,84.1881 89.4229,83.1861 C87.1879,85.3661 85.0649,85.3451 84.0659,85.1691 C82.6149,84.9131 81.3959,84.0231 80.7199,82.7251 C80.0529,81.4451 80.0319,79.9371 80.6599,78.5901 C81.2359,77.3551 82.2949,76.0301 84.2299,75.5411 C83.6649,75.3961 82.8229,75.0581 82.3739,74.1951 C81.8219,73.1361 82.0249,71.6591 83.0089,69.5471 C85.7369,63.6981 89.8769,62.1731 92.8419,62.6961 C93.3959,62.7931 93.9359,62.9631 94.4439,63.2001 C97.9369,64.8281 97.4139,69.0201 96.6389,70.6821 C96.3069,71.3941 95.1699,73.5161 93.1079,74.3661 C93.2049,74.9021 93.2399,75.5321 93.1499,76.2491 C94.7489,74.2761 96.6639,72.4671 98.5899,71.1331 C98.8089,70.9801 99.0769,70.9241 99.3329,70.9701 C99.4279,70.9861 99.5209,71.0171 99.6099,71.0611 C100.6759,71.6001 101.2599,72.2521 101.3969,73.0541 C101.6339,74.4421 100.4719,75.6501 98.8659,77.3211 C98.2259,77.9871 97.5219,78.7191 96.8169,79.5501 C97.4269,79.9191 98.0239,80.2881 98.6009,80.6461 C100.8009,82.0081 102.8779,83.2951 104.1769,83.5251 C104.4249,83.5681 104.6329,83.5691 104.7799,83.5281 C104.9269,83.4881 105.0779,83.4821 105.2219,83.5071 C105.4559,83.5481 105.6739,83.6731 105.8289,83.8671 C106.0789,84.1781 106.1189,84.6101 105.9299,84.9631 C104.8869,86.9151 103.4519,87.7441 101.6629,87.4291 C101.2059,87.3491 100.7189,87.1891 100.2159,86.9541 C99.6159,86.6751 98.9949,86.3001 98.3819,85.8841 C98.2999,86.5421 98.0669,87.1701 97.6829,87.7091 C96.7749,88.9891 95.2499,89.5451 93.4989,89.2371" id="Fill-41" fill="#311922" mask="url(#mask-4)"></path>
            <path d="M93.0973,86.9613 C91.7933,86.3533 92.5743,84.4613 92.9843,83.5833 C93.3543,82.7893 93.7693,82.0543 94.2093,81.3713 C94.2603,81.4113 94.3103,81.4513 94.3613,81.4913 C96.2903,83.3183 94.6513,87.6863 93.0973,86.9613 M83.8603,80.5753 C85.0553,78.0143 86.7153,77.4703 88.5923,77.9793 C88.5743,78.0183 88.5573,78.0563 88.5383,78.0953 C85.6053,84.3863 82.4033,83.7013 83.8603,80.5753 M95.3113,79.8183 C98.6653,75.4893 102.4513,73.6183 99.1593,71.9543 C96.8083,73.5833 94.4593,75.9743 92.7643,78.4283 C92.5003,78.2953 92.2343,78.1663 91.9673,78.0413 C91.8693,77.9963 91.7723,77.9513 91.6763,77.9073 C92.3913,76.1413 92.2983,74.7243 91.8723,73.6803 C93.9343,73.3633 95.2433,71.3103 95.7323,70.2593 C96.2083,69.2383 97.0263,65.5073 94.0213,64.1063 C91.0163,62.7053 86.6803,64.0423 83.9153,69.9693 C81.9863,74.1073 83.7463,74.5463 85.4303,74.7303 C85.5943,73.7883 85.9743,72.4833 86.7853,70.7453 C88.8263,66.3693 91.6943,64.2533 93.1243,64.9193 C94.5543,65.5863 93.8473,68.0783 93.2673,69.3223 C92.7723,70.3853 91.9823,71.8213 91.0533,72.4073 C90.7433,72.0823 90.4113,71.8473 90.1113,71.7083 C89.1903,71.2783 88.3103,72.7323 89.4883,73.2813 C89.7113,73.3853 89.9293,73.4693 90.1413,73.5353 C90.0493,74.3013 89.7063,75.4123 89.0723,76.9013 C84.6103,75.5183 82.5503,76.9013 81.5663,79.0123 C79.5433,83.3503 86.3973,88.1543 91.0983,79.1333 C91.3823,79.3073 91.6683,79.4923 91.9553,79.6893 C89.9203,83.1323 89.3913,86.4653 92.1753,87.7633 C96.2863,89.6803 98.4383,86.2433 96.9423,83.5673 C98.2523,84.6043 99.5083,85.5213 100.6383,86.0483 C102.8753,87.0913 104.1383,86.1943 105.0483,84.4913 C103.1393,85.0243 99.5123,82.2723 95.3113,79.8183" id="Fill-42" fill="#E51E41" mask="url(#mask-4)"></path>
            <path d="M20.7296,41.995 L21.8326,42.686 L22.3806,41.811 C22.7186,41.27 22.5256,41.022 22.2506,40.85 C22.0686,40.736 21.6106,40.587 21.2826,41.112 L20.7296,41.995 Z M18.7516,40.756 L19.8016,41.413 L20.3016,40.615 C20.5446,40.226 20.2766,39.878 20.0626,39.745 C19.8196,39.592 19.4846,39.584 19.2616,39.941 L18.7516,40.756 Z M21.4376,39.748 C21.8456,39.368 22.5456,39.298 23.0706,39.627 L23.1466,39.674 C24.0906,40.266 24.0266,41.264 23.3546,42.337 L22.0096,44.481 L17.0656,41.384 L18.2716,39.459 C18.9336,38.402 19.7936,37.807 20.7376,38.398 L20.8126,38.445 C21.2996,38.75 21.5106,39.243 21.4226,39.738 L21.4376,39.748 Z" id="Fill-43" fill="#311922" mask="url(#mask-4)"></path>
            <path d="M22.526,35.3133 L23.779,36.2933 L24.335,35.5853 C24.776,35.0193 24.609,34.5913 24.262,34.3193 C23.979,34.0983 23.546,34.0103 23.141,34.5273 L22.526,35.3133 Z M25.238,33.2463 C25.869,33.7383 26.044,34.4923 25.762,35.2763 L28.264,35.3153 L28.406,35.4273 L27.436,36.6663 L24.909,36.5713 L24.615,36.9463 L26.23,38.2093 L25.316,39.3773 L20.714,35.7783 L22.264,33.7953 C23.022,32.8253 24.141,32.3883 25.125,33.1573 L25.238,33.2463 Z" id="Fill-44" fill="#311922" mask="url(#mask-4)"></path>
            <path d="M27.6705,29.7176 C27.8515,29.9946 28.0545,30.3796 28.2095,30.6946 L28.7845,31.8816 L29.8755,30.7626 L28.6735,30.2186 C28.3545,30.0716 27.9645,29.8786 27.6835,29.7056 L27.6705,29.7176 Z M30.9865,31.2696 L29.3195,32.9796 L29.7895,33.9516 L28.7245,35.0456 L28.6075,34.9316 L26.1345,29.3376 L27.2525,28.1936 L32.9075,30.5206 L33.0235,30.6336 L31.9705,31.7146 L30.9865,31.2696 Z" id="Fill-45" fill="#311922" mask="url(#mask-4)"></path>
            <path d="M31.0426,26.8729 C30.2006,25.8559 30.7816,24.7689 31.5976,24.0929 C32.4686,23.3719 33.4796,23.0709 34.2886,23.8929 L34.3626,23.9829 L33.2766,24.8819 C33.0436,24.6439 32.7196,24.5749 32.3256,24.9009 C31.9366,25.2219 31.8806,25.5489 32.0826,25.7909 C32.3286,26.0879 32.5976,26.0049 32.9706,25.8359 C33.5296,25.5819 34.3416,25.1549 34.9486,25.2119 C35.2906,25.2439 35.7366,25.4449 36.0186,25.7849 L36.0756,25.8529 C36.9686,26.9319 36.3466,28.0539 35.4756,28.7749 C34.5276,29.5599 33.4946,29.8329 32.6086,28.9469 L32.5286,28.8499 L33.6416,27.9269 C34.0006,28.3179 34.4146,28.2549 34.8286,27.9109 C35.2166,27.5909 35.2926,27.1889 35.0806,26.9329 C34.8806,26.6919 34.7016,26.6299 34.1976,26.8249 C33.5456,27.0509 32.7456,27.5489 32.1396,27.4929 C31.7976,27.4599 31.3576,27.2529 31.0996,26.9419 L31.0426,26.8729 Z" id="Fill-46" fill="#311922" mask="url(#mask-4)"></path>
            <path d="M35.8062,23.0306 C35.0682,21.9366 35.7522,20.9106 36.6302,20.3186 C37.5702,19.6846 38.6052,19.4856 39.3292,20.3826 L39.3952,20.4796 L38.2262,21.2686 C38.0172,21.0076 37.7012,20.9076 37.2762,21.1936 C36.8602,21.4756 36.7702,21.7946 36.9472,22.0546 C37.1632,22.3756 37.4402,22.3196 37.8272,22.1876 C38.4102,21.9896 39.2592,21.6436 39.8582,21.7596 C40.1942,21.8246 40.6192,22.0696 40.8652,22.4346 L40.9162,22.5096 C41.7002,23.6706 40.9712,24.7256 40.0332,25.3596 C39.0132,26.0476 37.9572,26.2176 37.1622,25.2486 L37.0912,25.1436 L38.2902,24.3346 C38.6092,24.7596 39.0282,24.7366 39.4742,24.4346 C39.8912,24.1546 40.0062,23.7616 39.8202,23.4866 C39.6442,23.2256 39.4722,23.1466 38.9522,23.2926 C38.2812,23.4526 37.4352,23.8706 36.8372,23.7556 C36.5002,23.6896 36.0822,23.4406 35.8562,23.1056 L35.8062,23.0306 Z" id="Fill-47" fill="#311922" mask="url(#mask-4)"></path>
            <path d="M46.6305,21.2655 L45.6845,21.7435 L43.4855,19.8255 C43.3015,19.6785 42.7805,19.1055 42.5585,18.8255 L42.5425,18.8335 C42.7405,19.1665 43.0525,19.7835 43.1755,20.1245 L44.0265,22.6825 L42.7595,23.3235 L42.6865,23.1795 L40.9185,17.7125 L42.2005,17.0635 L45.2895,19.7285 L45.3065,19.7215 L45.0055,15.6445 L46.2555,15.0125 L49.5805,19.6935 L49.6525,19.8375 L48.3465,20.4985 L46.7535,18.2235 C46.5425,17.9075 46.2385,17.3875 46.0925,17.0375 L46.0765,17.0455 C46.2075,17.4035 46.3425,18.0085 46.3635,18.3295 L46.6305,21.2655 Z" id="Fill-48" fill="#311922" mask="url(#mask-4)"></path>
            <path d="M51.8145,14.3558 C51.8535,14.6848 51.8625,15.1198 51.8605,15.4718 L51.8445,16.7888 L53.3195,16.2758 L52.4885,15.2528 C52.2685,14.9778 52.0055,14.6318 51.8325,14.3508 L51.8145,14.3558 Z M54.0875,17.2248 L51.8325,18.0098 L51.8175,19.0888 L50.3775,19.5908 L50.3235,19.4378 L50.6115,13.3308 L52.1205,12.8048 L56.1405,17.4128 L56.1925,17.5658 L54.7695,18.0618 L54.0875,17.2248 Z" id="Fill-49" fill="#311922" mask="url(#mask-4)"></path>
            <path d="M56.0719,13.3226 C55.7709,12.0366 56.7759,11.3226 57.8069,11.0806 C58.9089,10.8226 59.9479,11.0036 60.3059,12.1006 L60.3339,12.2146 L58.9599,12.5356 C58.8589,12.2186 58.5979,12.0116 58.0989,12.1286 C57.6099,12.2436 57.4129,12.5106 57.4849,12.8156 C57.5739,13.1926 57.8519,13.2386 58.2609,13.2526 C58.8749,13.2756 59.7929,13.2546 60.3099,13.5756 C60.6019,13.7566 60.9119,14.1356 61.0129,14.5646 L61.0329,14.6526 C61.3519,16.0166 60.2959,16.7436 59.1939,17.0016 C57.9949,17.2816 56.9479,17.0656 56.5499,15.8766 L56.5219,15.7546 L57.9299,15.4246 C58.0769,15.9346 58.4759,16.0626 59.0009,15.9396 C59.4909,15.8246 59.7369,15.4996 59.6609,15.1766 C59.5889,14.8696 59.4569,14.7356 58.9199,14.6856 C58.2349,14.5966 57.2949,14.6866 56.7779,14.3656 C56.4859,14.1846 56.1849,13.8036 56.0929,13.4096 L56.0719,13.3226 Z" id="Fill-50" fill="#311922" mask="url(#mask-4)"></path>
            <polygon id="Fill-51" fill="#311922" mask="url(#mask-4)" points="61.462 10.4037 66.16 9.7607 66.322 10.9437 64.738 11.1607 65.367 15.7617 63.899 15.9627 63.269 11.3617 61.623 11.5867"></polygon>
            <polygon id="Fill-52" fill="#311922" mask="url(#mask-4)" points="72.089 9.4613 72.135 10.6553 69.575 10.7533 69.618 11.8323 71.791 11.7473 71.839 12.9783 69.665 13.0613 69.709 14.1923 72.268 14.0943 72.314 15.2973 68.274 15.4543 68.048 9.6173"></polygon>
            <path d="M75.5611,10.7084 L75.4641,12.2944 L76.3611,12.3494 C77.0781,12.3934 77.3341,12.0124 77.3621,11.5724 C77.3831,11.2144 77.2101,10.8084 76.5551,10.7684 L75.5611,10.7084 Z M78.7981,11.7684 C78.7501,12.5664 78.2291,13.1374 77.4241,13.3494 L78.8111,15.4314 L78.7991,15.6104 L77.2311,15.5154 L75.8761,13.3814 L75.4001,13.3524 L75.2761,15.3954 L73.7971,15.3064 L74.1511,9.4794 L76.6621,9.6324 C77.8891,9.7074 78.8821,10.3794 78.8081,11.6254 L78.7981,11.7684 Z" id="Fill-53" fill="#311922" mask="url(#mask-4)"></path>
            <polygon id="Fill-54" fill="#311922" mask="url(#mask-4)" points="89.5074 11.7621 89.2294 12.9241 86.6344 12.3041 86.3494 13.5011 88.5684 14.0311 88.2824 15.2281 86.0804 14.7021 85.5724 16.8241 84.1314 16.4801 85.4884 10.8031"></polygon>
            <polygon id="Fill-55" fill="#311922" mask="url(#mask-4)" points="91.2774 12.2923 92.6804 12.7683 91.1864 17.1823 93.5254 17.9743 93.1474 19.0883 89.4054 17.8203"></polygon>
            <path d="M98.484,16.5248 C98.283,16.7888 97.989,17.1078 97.744,17.3608 L96.82,18.3008 L98.24,18.9518 L98.349,17.6388 C98.381,17.2878 98.431,16.8568 98.5,16.5318 L98.484,16.5248 Z M98.136,20.1688 L95.965,19.1728 L95.208,19.9418 L93.82,19.3058 L93.888,19.1588 L98.326,14.9508 L99.779,15.6178 L99.486,21.7258 L99.419,21.8728 L98.047,21.2438 L98.136,20.1688 Z" id="Fill-56" fill="#311922" mask="url(#mask-4)"></path>
            <path d="M102.2906,18.7352 C102.9666,17.5992 104.1866,17.7802 105.0976,18.3212 C106.0726,18.9002 106.6956,19.7512 106.1936,20.7912 L106.1336,20.8922 L104.9196,20.1722 C105.0666,19.8712 105.0216,19.5422 104.5816,19.2802 C104.1486,19.0232 103.8226,19.0802 103.6616,19.3502 C103.4636,19.6832 103.6336,19.9082 103.9176,20.2032 C104.3446,20.6462 105.0216,21.2672 105.1726,21.8582 C105.2576,22.1912 105.2186,22.6802 104.9936,23.0592 L104.9476,23.1362 C104.2306,24.3412 102.9646,24.1332 101.9906,23.5552 C100.9316,22.9262 100.3266,22.0442 100.8646,20.9102 L100.9286,20.8012 L102.1726,21.5412 C101.9246,22.0102 102.1236,22.3792 102.5876,22.6542 C103.0206,22.9122 103.4246,22.8482 103.5936,22.5622 C103.7546,22.2922 103.7516,22.1022 103.3986,21.6932 C102.9666,21.1542 102.2276,20.5692 102.0766,19.9782 C101.9916,19.6452 102.0386,19.1602 102.2456,18.8132 L102.2906,18.7352 Z" id="Fill-57" fill="#311922" mask="url(#mask-4)"></path>
            <polygon id="Fill-58" fill="#311922" mask="url(#mask-4)" points="105.1808 25.3578 108.6898 20.6948 109.8738 21.5858 108.4958 23.4148 110.3978 24.8448 111.7748 23.0158 112.9588 23.9058 109.4498 28.5688 108.2668 27.6788 109.6808 25.7988 107.7798 24.3688 106.3658 26.2488"></polygon>
            <path d="M24.9176,106.5648 L22.2196,109.6948 C22.1916,109.7278 22.1516,109.7728 22.0996,109.8308 C22.0486,109.8878 21.9956,109.9458 21.9416,110.0048 C21.8876,110.0638 21.8366,110.1208 21.7906,110.1738 C21.7446,110.2288 21.7046,110.2698 21.6736,110.2978 L21.6836,110.3138 C21.7256,110.2988 21.7776,110.2788 21.8436,110.2518 C21.9086,110.2248 21.9796,110.1968 22.0536,110.1688 C22.1286,110.1388 22.2026,110.1118 22.2756,110.0858 C22.3496,110.0618 22.4066,110.0418 22.4486,110.0288 L26.3956,108.7158 L26.8736,109.4138 L26.7626,109.4908 L21.0786,111.3068 L20.5586,110.5498 L23.7346,106.7968 L23.7246,106.7828 L19.0916,108.4138 L18.5716,107.6568 L22.3106,103.0038 L22.4216,102.9288 L22.9006,103.6268 L20.2586,106.8368 C20.2306,106.8708 20.1906,106.9188 20.1416,106.9768 C20.0916,107.0378 20.0396,107.0968 19.9856,107.1558 C19.9316,107.2148 19.8806,107.2718 19.8336,107.3248 C19.7876,107.3788 19.7486,107.4198 19.7176,107.4498 L19.7276,107.4638 C19.7686,107.4498 19.8226,107.4298 19.8876,107.4028 C19.9536,107.3768 20.0226,107.3478 20.0976,107.3188 C20.1716,107.2898 20.2456,107.2608 20.3176,107.2338 C20.3896,107.2058 20.4456,107.1848 20.4876,107.1708 L24.3776,105.7778 L24.9176,106.5648 Z" id="Fill-59" fill="#311922" mask="url(#mask-4)"></path>
            <path d="M30.5035,113.4007 L28.3045,116.8987 C28.2815,116.9367 28.2495,116.9877 28.2075,117.0517 C28.1645,117.1167 28.1215,117.1817 28.0765,117.2487 C28.0315,117.3137 27.9895,117.3787 27.9525,117.4387 C27.9135,117.4997 27.8825,117.5467 27.8555,117.5787 L27.8675,117.5907 C27.9055,117.5707 27.9565,117.5447 28.0165,117.5077 C28.0775,117.4707 28.1425,117.4327 28.2115,117.3927 C28.2805,117.3527 28.3505,117.3147 28.4195,117.2787 C28.4885,117.2437 28.5425,117.2147 28.5805,117.1957 L32.2865,115.3067 L32.8645,115.9247 L32.7665,116.0167 L27.4175,118.6667 L26.7905,117.9947 L29.3695,113.8097 L29.3575,113.7957 L25.0205,116.1017 L24.3935,115.4307 L27.3935,110.2727 L27.4915,110.1797 L28.0695,110.7967 L25.9375,114.3687 C25.9155,114.4067 25.8835,114.4587 25.8435,114.5237 C25.8025,114.5907 25.7605,114.6587 25.7155,114.7237 C25.6715,114.7917 25.6295,114.8547 25.5915,114.9147 C25.5535,114.9737 25.5215,115.0217 25.4945,115.0537 L25.5065,115.0677 C25.5455,115.0477 25.5955,115.0197 25.6555,114.9837 C25.7165,114.9467 25.7815,114.9087 25.8505,114.8687 C25.9205,114.8287 25.9885,114.7897 26.0555,114.7517 C26.1225,114.7137 26.1755,114.6847 26.2145,114.6637 L29.8525,112.7047 L30.5035,113.4007 Z" id="Fill-60" fill="#311922" mask="url(#mask-4)"></path>
            <path d="M37.0528,119.3168 L35.4098,123.1098 C35.3938,123.1498 35.3698,123.2058 35.3368,123.2748 C35.3048,123.3448 35.2718,123.4178 35.2378,123.4888 C35.2028,123.5608 35.1718,123.6298 35.1438,123.6958 C35.1148,123.7598 35.0908,123.8118 35.0698,123.8488 L35.0838,123.8598 C35.1178,123.8338 35.1638,123.7988 35.2188,123.7538 C35.2718,123.7098 35.3308,123.6608 35.3928,123.6118 C35.4558,123.5618 35.5178,123.5128 35.5808,123.4668 C35.6438,123.4208 35.6928,123.3848 35.7288,123.3598 L39.1048,120.9308 L39.7688,121.4538 L39.6858,121.5598 L34.8018,124.9898 L34.0798,124.4218 L35.9938,119.8918 L35.9798,119.8808 L32.0428,122.8188 L31.3208,122.2528 L33.5038,116.6978 L33.5868,116.5908 L34.2518,117.1138 L32.6868,120.9658 C32.6698,121.0068 32.6468,121.0628 32.6168,121.1358 C32.5878,121.2088 32.5548,121.2798 32.5218,121.3528 C32.4878,121.4248 32.4558,121.4938 32.4278,121.5588 C32.3988,121.6248 32.3738,121.6748 32.3528,121.7128 L32.3668,121.7238 C32.4018,121.6978 32.4478,121.6618 32.5018,121.6178 C32.5558,121.5718 32.6148,121.5248 32.6768,121.4738 C32.7398,121.4248 32.8008,121.3758 32.8618,121.3278 C32.9218,121.2798 32.9698,121.2438 33.0048,121.2168 L36.3028,118.7278 L37.0528,119.3168 Z" id="Fill-61" fill="#311922" mask="url(#mask-4)"></path>
            <path d="M38.7721,127.0648 C38.6811,127.2068 38.5611,127.2868 38.4141,127.3058 C38.2661,127.3248 38.1241,127.2908 37.9871,127.2028 C37.8511,127.1158 37.7601,127.0008 37.7171,126.8588 C37.6721,126.7158 37.6961,126.5748 37.7871,126.4338 L37.8011,126.4108 C37.8961,126.2638 38.0141,126.1828 38.1591,126.1688 C38.3031,126.1548 38.4441,126.1918 38.5811,126.2788 C38.7171,126.3678 38.8091,126.4798 38.8551,126.6158 C38.9031,126.7528 38.8791,126.8948 38.7861,127.0418 L38.7721,127.0648 Z" id="Fill-62" fill="#311922" mask="url(#mask-4)"></path>
            <path d="M44.1266,124.8597 L43.3096,126.4137 L44.6146,127.1007 C44.7476,127.1707 44.8706,127.2037 44.9846,127.1987 C45.0996,127.1957 45.2046,127.1677 45.2986,127.1147 C45.3936,127.0637 45.4796,126.9957 45.5556,126.9097 C45.6306,126.8237 45.6936,126.7337 45.7436,126.6377 C45.7826,126.5627 45.8136,126.4797 45.8356,126.3857 C45.8576,126.2937 45.8606,126.1947 45.8436,126.0897 C45.8276,125.9857 45.7826,125.8847 45.7096,125.7857 C45.6366,125.6867 45.5256,125.5967 45.3766,125.5187 L44.1266,124.8597 Z M42.9646,127.0657 L42.0966,128.7137 L43.4816,129.4447 C43.6686,129.5427 43.8306,129.5937 43.9706,129.5987 C44.1096,129.6057 44.2306,129.5847 44.3336,129.5377 C44.4366,129.4897 44.5236,129.4227 44.5956,129.3387 C44.6676,129.2547 44.7266,129.1677 44.7736,129.0767 C44.8156,128.9977 44.8526,128.9027 44.8826,128.7937 C44.9136,128.6847 44.9186,128.5717 44.8976,128.4557 C44.8776,128.3397 44.8266,128.2247 44.7446,128.1097 C44.6626,127.9957 44.5336,127.8927 44.3586,127.7997 L42.9646,127.0657 Z M45.3086,127.8127 C45.3956,127.9057 45.4696,128.0177 45.5326,128.1487 C45.5956,128.2807 45.6386,128.4207 45.6626,128.5687 C45.6866,128.7167 45.6886,128.8697 45.6706,129.0257 C45.6526,129.1817 45.6056,129.3317 45.5306,129.4757 L45.5056,129.5237 C45.3796,129.7607 45.2296,129.9507 45.0546,130.0887 C44.8806,130.2287 44.6896,130.3187 44.4836,130.3637 C44.2766,130.4067 44.0606,130.4057 43.8336,130.3617 C43.6066,130.3167 43.3786,130.2337 43.1496,130.1127 L41.0006,128.9807 L43.7266,123.8047 L45.6376,124.8117 C45.8606,124.9277 46.0546,125.0647 46.2206,125.2197 C46.3866,125.3757 46.5126,125.5467 46.5986,125.7297 C46.6846,125.9147 46.7236,126.1127 46.7166,126.3267 C46.7096,126.5397 46.6426,126.7657 46.5166,127.0037 L46.4916,127.0517 C46.3526,127.3177 46.1786,127.5087 45.9706,127.6267 C45.7626,127.7457 45.5446,127.8007 45.3166,127.7977 L45.3086,127.8127 Z" id="Fill-63" fill="#311922" mask="url(#mask-4)"></path>
            <path d="M50.2574,130.0502 C50.4304,130.1192 50.5914,130.1532 50.7404,130.1502 C50.8904,130.1482 51.0244,130.1182 51.1434,130.0622 C51.2624,130.0072 51.3654,129.9272 51.4534,129.8262 C51.5414,129.7262 51.6114,129.6122 51.6624,129.4842 C51.7704,129.2102 51.7884,128.9482 51.7164,128.6972 C51.6454,128.4462 51.4364,128.2522 51.0904,128.1142 L49.7934,127.6032 L49.0194,129.5622 L50.2574,130.0502 Z M47.1324,132.0282 L49.2844,126.5882 L51.3774,127.4152 C51.6224,127.5132 51.8374,127.6382 52.0214,127.7912 C52.2054,127.9462 52.3504,128.1192 52.4534,128.3162 C52.5564,128.5122 52.6144,128.7262 52.6284,128.9602 C52.6424,129.1962 52.5974,129.4432 52.4944,129.7062 L52.4374,129.8482 C52.3514,130.0662 52.2394,130.2472 52.1014,130.3932 C51.9634,130.5372 51.8074,130.6532 51.6324,130.7352 C51.4574,130.8172 51.2704,130.8662 51.0694,130.8852 C50.8694,130.9032 50.6634,130.8922 50.4524,130.8552 L51.2164,133.4982 L51.1674,133.6232 L50.2634,133.2662 L49.4954,130.5812 L48.7344,130.2812 L47.9204,132.3392 L47.1324,132.0282 Z" id="Fill-64" fill="#311922" mask="url(#mask-4)"></path>
            <path d="M56.9376,130.3539 L56.8456,130.4879 L56.7356,130.6539 C56.7026,130.7069 56.6706,130.7549 56.6396,130.7999 C56.6096,130.8449 56.5846,130.8759 56.5666,130.8969 L55.2446,132.6459 L57.2596,133.1929 L56.9976,130.9949 C56.9986,130.9709 56.9946,130.9309 56.9876,130.8749 C56.9806,130.8209 56.9746,130.7609 56.9706,130.6989 C56.9656,130.6349 56.9626,130.5729 56.9606,130.5089 C56.9586,130.4479 56.9566,130.3959 56.9556,130.3579 L56.9376,130.3539 Z M57.3576,134.0019 L54.7606,133.2979 L53.8586,134.4899 L53.0246,134.2629 L53.0606,134.1319 L56.8836,129.2489 L57.5956,129.4409 L58.4376,135.5909 L58.4026,135.7199 L57.5336,135.4859 L57.3576,134.0019 Z" id="Fill-65" fill="#311922" mask="url(#mask-4)"></path>
            <path d="M61.2247,131.8128 C61.2647,131.5648 61.3537,131.3498 61.4947,131.1718 C61.6347,130.9938 61.8037,130.8508 62.0027,130.7458 C62.2017,130.6408 62.4207,130.5728 62.6597,130.5408 C62.8977,130.5068 63.1357,130.5098 63.3727,130.5468 C63.6407,130.5888 63.8847,130.6628 64.1087,130.7668 C64.3317,130.8718 64.5187,131.0048 64.6707,131.1658 C64.8207,131.3258 64.9327,131.5128 65.0057,131.7278 C65.0777,131.9428 65.0967,132.1808 65.0617,132.4428 L65.0507,132.5128 L64.2677,132.3908 C64.2757,132.2648 64.2657,132.1398 64.2357,132.0168 C64.2057,131.8938 64.1527,131.7808 64.0747,131.6768 C63.9967,131.5748 63.8937,131.4848 63.7657,131.4108 C63.6387,131.3348 63.4827,131.2838 63.2987,131.2538 C62.9257,131.1968 62.6397,131.2378 62.4407,131.3788 C62.2417,131.5218 62.1257,131.7058 62.0897,131.9298 C62.0697,132.0608 62.0697,132.1728 62.0917,132.2678 C62.1137,132.3618 62.1587,132.4588 62.2287,132.5528 C62.3137,132.6698 62.4577,132.7748 62.6627,132.8678 C62.8667,132.9608 63.0877,133.0578 63.3277,133.1588 C63.5667,133.2598 63.8017,133.3748 64.0347,133.5018 C64.2667,133.6288 64.4517,133.7918 64.5907,133.9908 C64.7047,134.1478 64.7847,134.3278 64.8297,134.5298 C64.8737,134.7308 64.8817,134.9258 64.8507,135.1158 L64.8367,135.2038 C64.7877,135.5178 64.6827,135.7738 64.5247,135.9708 C64.3677,136.1678 64.1807,136.3198 63.9667,136.4248 C63.7527,136.5318 63.5217,136.5948 63.2757,136.6168 C63.0297,136.6388 62.7937,136.6328 62.5687,136.5968 C62.2837,136.5518 62.0217,136.4698 61.7827,136.3498 C61.5437,136.2318 61.3427,136.0808 61.1797,135.8958 C61.0177,135.7118 60.8977,135.5008 60.8197,135.2608 C60.7417,135.0218 60.7227,134.7578 60.7617,134.4728 L60.7717,134.4018 L61.6257,134.5368 C61.5817,134.8938 61.6537,135.1908 61.8417,135.4268 C62.0287,135.6628 62.3177,135.8108 62.7097,135.8728 C63.0477,135.9258 63.3307,135.8878 63.5607,135.7598 C63.7907,135.6318 63.9287,135.4198 63.9757,135.1248 C64.0187,134.8448 63.9737,134.6138 63.8387,134.4278 C63.7287,134.2708 63.5677,134.1428 63.3517,134.0418 C63.1377,133.9418 62.9117,133.8418 62.6747,133.7448 C62.4377,133.6468 62.2087,133.5408 61.9877,133.4258 C61.7647,133.3128 61.5887,133.1668 61.4587,132.9888 C61.3437,132.8308 61.2657,132.6658 61.2227,132.4958 C61.1797,132.3248 61.1757,132.1268 61.2107,131.9018 L61.2247,131.8128 Z" id="Fill-66" fill="#311922" mask="url(#mask-4)"></path>
            <path d="M67.2281,132.6507 C67.2421,132.3997 67.3101,132.1777 67.4321,131.9857 C67.5531,131.7947 67.7081,131.6357 67.8951,131.5107 C68.0821,131.3857 68.2921,131.2957 68.5271,131.2397 C68.7621,131.1827 68.9991,131.1607 69.2381,131.1737 C69.5081,131.1887 69.7591,131.2367 69.9921,131.3187 C70.2251,131.4017 70.4241,131.5137 70.5911,131.6587 C70.7571,131.8017 70.8871,131.9787 70.9811,132.1827 C71.0751,132.3907 71.1181,132.6257 71.1091,132.8887 L71.1061,132.9627 L70.3151,132.9187 C70.3101,132.7917 70.2861,132.6687 70.2441,132.5497 C70.2031,132.4297 70.1381,132.3227 70.0501,132.2277 C69.9621,132.1337 69.8511,132.0547 69.7161,131.9937 C69.5811,131.9317 69.4201,131.8957 69.2351,131.8857 C68.8581,131.8657 68.5781,131.9347 68.3941,132.0967 C68.2111,132.2567 68.1141,132.4537 68.1011,132.6807 C68.0941,132.8127 68.1061,132.9227 68.1371,133.0157 C68.1681,133.1077 68.2231,133.1977 68.3031,133.2867 C68.3991,133.3927 68.5531,133.4827 68.7661,133.5547 C68.9781,133.6267 69.2081,133.7007 69.4571,133.7777 C69.7051,133.8547 69.9511,133.9447 70.1951,134.0477 C70.4381,134.1507 70.6391,134.2947 70.7971,134.4767 C70.9281,134.6227 71.0251,134.7937 71.0901,134.9887 C71.1541,135.1847 71.1811,135.3787 71.1701,135.5707 L71.1661,135.6597 C71.1481,135.9767 71.0701,136.2417 70.9331,136.4537 C70.7951,136.6657 70.6251,136.8357 70.4231,136.9627 C70.2211,137.0887 69.9981,137.1757 69.7551,137.2227 C69.5121,137.2697 69.2771,137.2877 69.0491,137.2747 C68.7621,137.2597 68.4931,137.2037 68.2431,137.1087 C67.9921,137.0137 67.7771,136.8827 67.5971,136.7177 C67.4161,136.5517 67.2761,136.3537 67.1741,136.1227 C67.0731,135.8917 67.0261,135.6317 67.0371,135.3447 L67.0411,135.2717 L67.9031,135.3197 C67.8951,135.6787 67.9971,135.9677 68.2081,136.1837 C68.4181,136.3987 68.7211,136.5177 69.1161,136.5387 C69.4581,136.5577 69.7361,136.4927 69.9521,136.3407 C70.1671,136.1907 70.2841,135.9657 70.3001,135.6667 C70.3151,135.3847 70.2461,135.1597 70.0931,134.9877 C69.9691,134.8427 69.7951,134.7317 69.5711,134.6527 C69.3471,134.5747 69.1121,134.4987 68.8671,134.4257 C68.6221,134.3527 68.3821,134.2697 68.1501,134.1787 C67.9181,134.0887 67.7281,133.9617 67.5811,133.7967 C67.4501,133.6517 67.3551,133.4967 67.2951,133.3307 C67.2351,133.1647 67.2111,132.9677 67.2241,132.7417 L67.2281,132.6507 Z" id="Fill-67" fill="#311922" mask="url(#mask-4)"></path>
            <path d="M74.6324,136.7113 C74.6364,136.8803 74.5824,137.0143 74.4714,137.1123 C74.3594,137.2113 74.2224,137.2613 74.0604,137.2663 C73.8994,137.2703 73.7594,137.2253 73.6434,137.1323 C73.5274,137.0393 73.4674,136.9083 73.4624,136.7403 L73.4624,136.7133 C73.4574,136.5403 73.5114,136.4063 73.6234,136.3143 C73.7354,136.2213 73.8724,136.1723 74.0334,136.1683 C74.1954,136.1653 74.3354,136.2063 74.4514,136.2933 C74.5674,136.3803 74.6284,136.5123 74.6324,136.6853 L74.6324,136.7113 Z" id="Fill-68" fill="#311922" mask="url(#mask-4)"></path>
            <polygon id="Fill-69" fill="#311922" mask="url(#mask-4)" points="77.5899 137.0668 76.8999 131.2568 77.7399 131.1578 78.0339 133.6318 81.2419 133.2518 80.9479 130.7768 81.7889 130.6768 82.4789 136.4858 81.6379 136.5858 81.3319 134.0038 78.1229 134.3838 78.4299 136.9668"></polygon>
            <polygon id="Fill-70" fill="#311922" mask="url(#mask-4)" points="85.3629 135.9154 84.1449 130.1924 84.9729 130.0174 86.1899 135.7384"></polygon>
            <path d="M90.4522,132.0052 C90.6472,131.9462 90.8052,131.8632 90.9272,131.7552 C91.0472,131.6462 91.1392,131.5232 91.2002,131.3812 C91.2612,131.2412 91.2922,131.0892 91.2942,130.9302 C91.2962,130.7702 91.2722,130.6092 91.2242,130.4482 C91.1742,130.2812 91.1072,130.1292 91.0222,129.9922 C90.9362,129.8552 90.8342,129.7412 90.7132,129.6522 C90.5922,129.5632 90.4532,129.5072 90.2952,129.4832 C90.1382,129.4582 89.9642,129.4742 89.7742,129.5302 L88.3432,129.9602 L89.0812,132.4162 L90.4522,132.0052 Z M92.0612,130.2622 C92.1512,130.5612 92.1792,130.8422 92.1462,131.1072 C92.1132,131.3702 92.0292,131.6102 91.8962,131.8242 C91.7642,132.0392 91.5882,132.2262 91.3692,132.3832 C91.1492,132.5382 90.9022,132.6592 90.6262,132.7422 L89.2992,133.1412 L89.8092,134.8392 L88.9982,135.0822 L87.3162,129.4802 L89.5652,128.8042 C89.8292,128.7252 90.0892,128.6922 90.3442,128.7062 C90.5992,128.7202 90.8352,128.7812 91.0522,128.8882 C91.2692,128.9952 91.4612,129.1512 91.6292,129.3542 C91.7962,129.5582 91.9252,129.8082 92.0152,130.1072 L92.0612,130.2622 Z" id="Fill-71" fill="#311922" mask="url(#mask-4)"></path>
            <polygon id="Fill-72" fill="#311922" mask="url(#mask-4)" points="95.5377 132.9652 93.2117 127.5992 93.9877 127.2632 94.9787 129.5502 97.9437 128.2652 96.9527 125.9772 97.7287 125.6412 100.0557 131.0092 99.2787 131.3452 98.2447 128.9582 95.2797 130.2432 96.3137 132.6302"></polygon>
            <path d="M103.8224,128.0492 C104.0974,128.0262 104.3754,127.9312 104.6534,127.7642 C104.9324,127.6002 105.1474,127.4022 105.3004,127.1712 C105.4534,126.9412 105.5504,126.6932 105.5914,126.4272 C105.6324,126.1622 105.6194,125.8872 105.5514,125.6032 C105.4844,125.3192 105.3694,125.0422 105.2104,124.7742 C105.0514,124.5062 104.8634,124.2752 104.6454,124.0792 C104.4284,123.8832 104.1954,123.7392 103.9444,123.6482 C103.6944,123.5552 103.4304,123.5222 103.1524,123.5472 C102.8744,123.5722 102.5934,123.6712 102.3094,123.8392 C102.0264,124.0082 101.8064,124.2072 101.6514,124.4412 C101.4964,124.6722 101.3984,124.9202 101.3604,125.1842 C101.3214,125.4472 101.3374,125.7212 101.4074,126.0032 C101.4774,126.2862 101.5934,126.5622 101.7524,126.8302 C101.9124,127.0992 102.1014,127.3292 102.3214,127.5232 C102.5414,127.7162 102.7774,127.8592 103.0304,127.9492 C103.2824,128.0402 103.5474,128.0732 103.8224,128.0492 Z M106.0004,124.4302 C106.2244,124.8072 106.3664,125.1892 106.4254,125.5752 C106.4844,125.9632 106.4684,126.3322 106.3784,126.6862 C106.2884,127.0392 106.1314,127.3682 105.9054,127.6702 C105.6804,127.9712 105.3944,128.2252 105.0494,128.4292 C104.7034,128.6362 104.3434,128.7662 103.9684,128.8212 C103.5924,128.8772 103.2284,128.8612 102.8744,128.7712 C102.5204,128.6802 102.1874,128.5172 101.8764,128.2792 C101.5644,128.0432 101.2964,127.7362 101.0724,127.3592 L100.9624,127.1742 C100.7384,126.7972 100.5984,126.4142 100.5424,126.0262 C100.4854,125.6372 100.5024,125.2672 100.5924,124.9122 C100.6814,124.5592 100.8394,124.2322 101.0654,123.9302 C101.2914,123.6282 101.5764,123.3752 101.9214,123.1682 C102.2624,122.9672 102.6194,122.8382 102.9914,122.7842 C103.3644,122.7322 103.7274,122.7482 104.0804,122.8382 C104.4354,122.9292 104.7684,123.0912 105.0834,123.3262 C105.3974,123.5622 105.6664,123.8672 105.8904,124.2442 L106.0004,124.4302 Z" id="Fill-73" fill="#311922" mask="url(#mask-4)"></path>
            <path d="M109.9122,121.9027 C110.0732,121.7787 110.1922,121.6437 110.2662,121.5007 C110.3412,121.3557 110.3832,121.2077 110.3912,121.0547 C110.3982,120.9017 110.3742,120.7507 110.3202,120.5997 C110.2642,120.4487 110.1862,120.3057 110.0832,120.1727 C109.9782,120.0347 109.8612,119.9167 109.7332,119.8177 C109.6052,119.7197 109.4692,119.6497 109.3242,119.6097 C109.1802,119.5687 109.0292,119.5637 108.8732,119.5967 C108.7172,119.6307 108.5602,119.7067 108.4032,119.8267 L107.2162,120.7357 L108.7752,122.7727 L109.9122,121.9027 Z M110.8012,119.7037 C110.9912,119.9507 111.1172,120.2047 111.1782,120.4627 C111.2412,120.7207 111.2472,120.9747 111.1992,121.2227 C111.1512,121.4707 111.0522,121.7077 110.9032,121.9307 C110.7532,122.1557 110.5642,122.3547 110.3352,122.5307 L109.2352,123.3727 L110.3122,124.7807 L109.6402,125.2957 L106.0852,120.6477 L107.9512,119.2207 C108.1702,119.0517 108.4012,118.9307 108.6452,118.8547 C108.8882,118.7777 109.1312,118.7517 109.3712,118.7747 C109.6132,118.7987 109.8472,118.8767 110.0762,119.0067 C110.3042,119.1367 110.5132,119.3267 110.7042,119.5757 L110.8012,119.7037 Z" id="Fill-74" fill="#311922" mask="url(#mask-4)"></path>
        </g>
    </g>
</svg>