<svg xmlns="http://www.w3.org/2000/svg" xmlns:xlink="http://www.w3.org/1999/xlink" width="313" height="313" viewBox="0 0 313 313">
  <defs>
    <path id="vinyl-a" d="M247.250771,204.779431 C233.976062,218.159035 218.065182,228.943873 200.647129,236.228539 C183.218036,243.491122 164.345258,247.24801 145.453159,247.281135 C126.561059,247.305979 107.663438,243.601537 90.1929384,236.388642 C72.7058764,229.20059 56.6956223,218.484761 43.2966958,205.135521 C29.9474564,191.739355 19.2316277,175.726341 12.0435756,158.242039 C4.83068012,140.768779 1.12623857,121.871158 1.15108206,102.981819 C1.18420673,84.0897191 4.94109567,65.2141816 12.2036782,47.7878481 C19.4883438,30.364275 30.2759426,14.4589157 43.6555463,1.18420673 C16.9819109,27.8964876 1.65071241,65.3273575 1.83013767,102.981819 C1.85774155,121.785586 5.60358894,140.570031 12.8247656,157.919074 C20.0238592,175.279158 30.7203652,191.151393 44.0143969,204.420581 C57.2780643,217.714612 73.1530593,228.411118 90.5131435,235.610212 C107.864946,242.831389 126.649391,246.577236 145.453159,246.60484"/>
    <linearGradient id="vinyl-b" x1="17.126%" x2="58.635%" y1="82.875%" y2="41.365%">
      <stop offset="0%" stop-color="#FEFEFE"/>
      <stop offset="100%" stop-color="#FEFEFE"/>
    </linearGradient>
    <path id="vinyl-d" d="M257.025605,213.122808 C243.208182,227.045201 226.653242,238.268749 208.520982,245.843194 C190.383198,253.403826 170.739917,257.309831 151.082824,257.340217 C131.422969,257.367841 111.757589,253.511559 93.5756071,246.003412 C75.3825754,238.522888 58.719902,227.371162 44.7781724,213.479155 C30.8834033,199.54295 19.7344395,182.877514 12.2511533,164.68172 C4.74576806,146.499738 0.889486213,126.837121 0.914347629,107.177265 C0.947496184,87.5174101 4.85626324,67.8741291 12.4141337,49.7363451 C19.9913408,31.6068481 31.2148888,15.0491451 45.1372817,1.23172264 C31.3309088,15.1679274 20.2703411,31.7946899 12.8754511,49.9269492 C5.40597677,68.0315848 1.56350682,87.6058062 1.593893,107.177265 C1.62151679,126.748724 5.51647195,146.300847 13.0356691,164.358522 C20.5272424,182.430009 31.659632,198.951801 45.4963911,212.763699 C59.3055264,226.60322 75.8300809,237.732847 93.9015678,245.224421 C111.956481,252.740855 131.511365,256.638573 151.082824,256.668959 C170.654283,256.696583 190.228505,252.851351 208.330378,245.387401"/>
    <linearGradient id="vinyl-e" x1="17.127%" x2="58.634%" y1="82.874%" y2="41.367%">
      <stop offset="0%" stop-color="#FEFEFE"/>
      <stop offset="100%" stop-color="#FEFEFE"/>
    </linearGradient>
    <path id="vinyl-g" d="M237.516761,196.425432 C224.785013,209.264772 209.523468,219.618456 192.808048,226.609193 C176.08987,233.580618 157.975751,237.186337 139.850597,237.219443 C121.722685,237.244272 103.592013,233.690969 86.8241769,226.769202 C70.0480642,219.875022 54.6816856,209.590308 41.8257926,196.784073 C29.01404,183.930939 18.7320844,168.561801 11.8351461,151.785689 C4.9188964,135.017852 1.36283501,116.884422 1.39042276,98.7592681 C1.42076929,80.6313555 5.02924741,62.5199955 11.9979139,45.7990583 C18.9886505,29.0836386 29.3423343,13.8248523 42.1816747,1.09034545 C16.5940336,26.7248857 1.89527865,62.6386229 2.06356394,98.7592681 C2.09391047,116.7989 5.68859471,134.81922 12.6186383,151.460153 C19.5266117,168.11488 29.7864971,183.340561 42.5403154,196.06955 C55.266546,208.823368 70.492227,219.086013 87.1469536,225.991227 C103.790645,232.921271 121.810966,236.515955 139.850597,236.543543"/>
    <linearGradient id="vinyl-h" x1="17.124%" x2="58.638%" y1="82.876%" y2="41.362%">
      <stop offset="0%" stop-color="#FEFEFE"/>
      <stop offset="100%" stop-color="#FEFEFE"/>
    </linearGradient>
    <path id="vinyl-j" d="M226.336474,188.083119 C214.144728,200.37961 199.532824,210.297291 183.528917,216.995447 C167.519497,223.671552 150.173203,227.125375 132.815882,227.155696 C115.455806,227.18326 98.0929723,223.78181 82.0366929,217.155321 C65.9693878,210.550884 51.2527396,200.70487 38.9397095,188.441456 C26.6707826,176.131183 16.8275253,161.411778 10.2230883,145.344473 C3.59935626,129.288194 0.19790583,111.922604 0.222713815,94.5652835 C0.253034686,77.2052067 3.70961397,59.8616685 10.3857185,43.8522487 C17.0811181,27.8483417 26.9987993,13.2336819 39.2952907,1.04469183 C14.8015398,25.5963279 0.732655735,59.982952 0.895285861,94.5652835 C0.925606732,111.837154 4.3684038,129.08973 11.0031617,145.021969 C17.6186244,160.965234 27.445343,175.541304 39.6536282,187.724781 C51.8371055,199.938579 66.413175,209.765298 82.3564403,216.378004 C98.2886797,223.012762 115.544012,226.455559 132.815882,226.48588"/>
    <linearGradient id="vinyl-k" x1="17.122%" x2="58.64%" y1="82.878%" y2="41.36%">
      <stop offset="0%" stop-color="#FEFEFE"/>
      <stop offset="100%" stop-color="#FEFEFE"/>
    </linearGradient>
    <path id="vinyl-m" d="M206.822858,171.39125 C195.716713,182.604713 182.400898,191.649782 167.813764,197.764215 C153.218376,203.853882 137.406705,207.004659 121.581275,207.034929 C105.755845,207.062446 89.9221593,203.963953 75.2827423,197.923818 C60.6295664,191.905696 47.2091835,182.929422 35.9819614,171.74898 C24.7960159,160.521758 15.8224935,147.101375 9.80437226,132.448199 C3.76423684,117.808782 0.665743687,101.975097 0.693261388,86.1496672 C0.726282629,70.3242372 3.87430765,54.5125661 9.96397492,39.9144256 C16.0784081,25.3272922 25.1262283,12.0114766 36.3369398,0.90808414 C14.0255876,23.2964858 1.21609771,54.6363957 1.36744507,86.1496672 C1.39771454,101.88704 4.53748425,117.610655 10.585875,132.126242 C16.6122515,146.652837 25.5692633,159.932879 36.6946699,171.03352 C47.7925588,182.16443 61.0781049,191.11869 75.6046994,197.147819 C90.1202868,203.196209 105.841149,206.333227 121.581275,206.363497"/>
    <linearGradient id="vinyl-n" x1="17.12%" x2="58.646%" y1="82.881%" y2="41.354%">
      <stop offset="0%" stop-color="#FEFEFE"/>
      <stop offset="100%" stop-color="#FEFEFE"/>
    </linearGradient>
    <path id="vinyl-p" d="M197.096075,163.040852 C186.516025,173.700637 173.84911,182.306551 159.972418,188.129978 C146.084727,193.928659 131.039501,196.936604 115.980526,196.975097 C100.918802,196.994344 85.8543291,194.038639 71.922647,188.289448 C57.9827164,182.559504 45.21407,174.025077 34.5075434,163.395537 C23.8780026,152.694509 15.3435757,139.923113 9.61363186,125.983183 C3.86444155,112.0515 0.908736347,96.9870272 0.9279828,81.9253033 C0.969225198,66.8635795 3.97442128,51.8211022 9.77585196,37.9334119 C15.5965291,24.0539702 24.2051923,11.3898045 34.8649775,0.809754592 C13.6691343,22.1485714 1.47238246,51.9393304 1.60160864,81.9253033 C1.64010154,96.8990434 4.63704914,111.853537 10.3917384,125.658742 C16.1299308,139.477695 24.6478607,152.108867 35.2224116,162.683418 C45.794213,173.257969 58.4253849,181.775899 72.2443377,187.514091 C86.0522926,193.27153 101.006786,196.268478 115.980526,196.304221"/>
    <linearGradient id="vinyl-q" x1="17.118%" x2="58.65%" y1="82.883%" y2="41.35%">
      <stop offset="0%" stop-color="#FEFEFE"/>
      <stop offset="100%" stop-color="#FEFEFE"/>
    </linearGradient>
    <path id="vinyl-s" d="M216.604509,179.732232 C204.955558,191.48861 190.990038,200.972493 175.691321,207.376799 C160.387095,213.761824 143.807517,217.064517 127.214166,217.094817 C110.61806,217.122363 94.0191997,213.872005 78.6681462,207.539317 C63.3088292,201.22591 49.2386371,191.813646 37.4657316,180.090322 C25.7368987,168.320171 16.3273888,154.247225 10.0167369,138.887908 C3.68129406,123.536854 0.430936435,106.935239 0.458481839,90.3418883 C0.488781783,73.7485372 3.79423021,57.1689587 10.1765002,41.861978 C16.5835611,26.5632608 26.064689,12.5977412 37.8238218,0.948790022 C14.4157378,24.422983 0.976335426,57.2901585 1.13058969,90.3418883 C1.16088963,106.847094 4.45256536,123.338527 10.7962718,138.562872 C17.1179419,153.800989 26.5109246,167.7307 38.1819121,179.374142 C49.8225996,191.047884 63.7523102,200.438112 78.9904275,206.759782 C94.214772,213.103488 110.70896,216.39241 127.214166,216.42271"/>
    <linearGradient id="vinyl-t" x1="17.121%" x2="58.643%" y1="82.88%" y2="41.357%">
      <stop offset="0%" stop-color="#FEFEFE"/>
      <stop offset="100%" stop-color="#FEFEFE"/>
    </linearGradient>
    <path id="vinyl-v" d="M188.709687,155.847515 C178.598162,166.039268 166.491997,174.26958 153.226671,179.838527 C139.953047,185.385341 125.572825,188.262492 111.173239,188.301223 C96.773652,188.320589 82.3740654,185.496001 69.0506438,180.00175 C55.7216892,174.524097 43.5131636,166.365714 33.2799127,156.204392 C23.115824,145.973908 14.9574415,133.762616 9.47978891,120.430895 C3.98830389,107.113006 1.16094989,92.7106529 1.18031533,78.3110662 C1.2218127,63.9114796 4.09896354,49.5312583 9.64301189,36.2548671 C15.2119587,22.9895418 23.4450365,10.8861428 33.6340235,0.774617534 C13.383308,21.1802566 1.73638006,49.6529839 1.85810567,78.3110662 C1.89683655,92.6221252 4.76015494,106.911052 10.2627059,120.107215 C15.7514244,133.311678 23.8904415,145.381879 33.9936674,155.487871 C44.0996597,165.593863 56.1698608,173.73288 69.3743233,179.221599 C82.5704863,184.72415 96.8621798,187.590235 111.173239,187.626199"/>
    <linearGradient id="vinyl-w" x1="17.116%" x2="58.654%" y1="82.885%" y2="41.347%">
      <stop offset="0%" stop-color="#FEFEFE"/>
      <stop offset="100%" stop-color="#FEFEFE"/>
    </linearGradient>
    <path id="vinyl-y" d="M177.572382,147.46202 C168.006221,157.1111 156.549493,164.905545 143.992697,170.181998 C131.42761,175.433574 117.812207,178.158866 104.182984,178.197562 C90.5509972,178.21691 76.9190104,175.544134 64.3069351,170.345073 C51.6865678,165.162596 40.1275717,157.437251 30.4342673,147.818574 C20.8155905,138.130798 13.0930092,126.569038 7.91053246,113.94867 C2.70870783,101.336595 0.0359318386,87.7046082 0.0580437392,74.0726215 C0.0967395654,60.4406347 2.81926733,46.8279959 8.07084374,34.2629083 C13.35006,21.7061127 21.144505,10.2493842 30.7935857,0.68322318 C11.6308597,20.0062604 0.616369231,46.9523753 0.732456709,74.0726215 C0.771152535,87.6161606 3.48262435,101.140352 8.69274095,113.625284 C13.8862736,126.121272 21.589507,137.542068 31.152904,147.102701 C40.7107731,156.666098 52.1343338,164.372096 64.6275576,169.562864 C77.1152535,174.772981 90.6366808,177.487217 104.182984,177.523149"/>
    <linearGradient id="vinyl-z" x1="17.112%" x2="58.657%" y1="82.887%" y2="41.342%">
      <stop offset="0%" stop-color="#FEFEFE"/>
      <stop offset="100%" stop-color="#FEFEFE"/>
    </linearGradient>
    <path id="vinyl-B" d="M167.795427,139.118065 C158.76921,148.224356 147.964808,155.582836 136.116689,160.566722 C124.263048,165.525758 111.415391,168.096393 98.5539278,168.13505 C85.6924649,168.154378 72.8227185,165.633443 60.9221378,160.726869 C49.0105124,155.836862 38.1011865,148.550173 28.9562391,139.474254 C19.8775594,130.332068 12.5908697,119.41722 7.70086304,107.508356 C2.79428949,95.6050136 0.273354407,82.7380284 0.295443652,69.8765655 C0.334099831,57.0123414 2.90473572,44.1674454 7.86101007,32.3110432 C12.844896,20.4656855 20.2061369,9.65852238 29.3124281,0.635065794 C11.2434257,18.8724987 0.8587194,44.2944586 0.969165625,69.8765655 C1.0078218,82.6524326 3.56465192,95.4089716 8.48227009,107.1853 C13.3805602,118.969913 20.6506829,129.741181 29.6713784,138.759115 C38.6865515,147.77981 49.4605808,155.047172 61.245193,159.948223 C73.0215217,164.86308 85.7780607,167.425433 98.5539278,167.461328"/>
    <linearGradient id="vinyl-C" x1="17.11%" x2="58.662%" y1="82.89%" y2="41.338%">
      <stop offset="0%" stop-color="#FEFEFE"/>
      <stop offset="100%" stop-color="#FEFEFE"/>
    </linearGradient>
    <path id="vinyl-E" d="M158.061273,130.763821 C149.580798,139.332577 139.422987,146.257103 128.280294,150.94978 C117.129324,155.614869 105.051405,158.034315 92.9514169,158.072938 C80.8514283,158.092249 68.748681,155.722461 57.5535707,151.109789 C46.3501842,146.513669 36.08754,139.658112 27.480161,131.122461 C18.9445101,122.5206 12.0889535,112.252438 7.49283377,101.05181 C2.87740266,89.8567002 0.510373434,77.7511941 0.532443637,65.6539643 C0.568307716,53.5539757 2.99051245,41.4732986 7.65560152,30.3223287 C12.3455196,19.182394 19.2728044,9.02182449 27.8388018,0.541349157 C10.8557809,17.7009317 1.10075135,41.602961 1.20558482,65.6539643 C1.24420767,77.665672 3.65261852,89.6553096 8.27356719,100.726275 C12.880722,111.808275 19.7169672,121.930222 28.1974426,130.407939 C36.6696416,138.891173 46.7971058,145.724659 57.8763475,150.331814 C68.9473128,154.955521 80.9397091,157.363932 92.9514169,157.397038"/>
    <linearGradient id="vinyl-F" x1="17.107%" x2="58.668%" y1="82.892%" y2="41.333%">
      <stop offset="0%" stop-color="#FEFEFE"/>
      <stop offset="100%" stop-color="#FEFEFE"/>
    </linearGradient>
    <path id="vinyl-H" d="M0.846129297,42.5900363 C14.1180779,29.2104326 30.028958,18.4228338 47.4497707,11.1409286 C64.8761042,3.87558565 83.7516417,0.118696712 102.643742,0.0883324365 C121.535841,0.0607285501 140.430702,3.76793049 157.903962,10.980826 C175.388263,18.168878 191.401278,28.8847067 204.800204,42.2311858 C218.149444,55.6273519 228.862512,71.6431268 236.053325,89.1274284 C243.26346,106.600688 246.970662,125.495549 246.943058,144.387649 C246.909933,163.276988 243.153044,182.152526 235.890462,199.581619 C228.608556,217.002432 217.818197,232.910552 204.441354,246.185261 C231.114989,219.47022 246.446188,182.03935 246.266762,144.387649 C246.236398,125.583881 242.493311,106.796676 235.272135,89.4503939 C228.070281,72.0903097 217.373775,56.218075 204.082503,42.9488868 C190.816075,29.6520948 174.94108,18.9583492 157.580996,11.7592556 C140.231954,4.53807892 121.447509,0.79223154 102.643742,0.761867265"/>
    <linearGradient id="vinyl-I" x1="82.875%" x2="41.365%" y1="17.125%" y2="58.635%">
      <stop offset="0%" stop-color="#FEFEFE"/>
      <stop offset="100%" stop-color="#FEFEFE"/>
    </linearGradient>
    <path id="vinyl-K" d="M0.939209045,45.4297953 C14.7566315,31.5074024 31.3143345,20.2838544 49.4465938,12.7066473 C67.5816155,5.14877683 87.2276589,1.24277216 106.884752,1.2096236 C126.544607,1.18199981 146.207225,5.04104403 164.389207,12.5464293 C182.585001,20.0269531 199.244912,31.1814417 213.186641,45.070686 C227.084173,59.0096532 238.233137,75.675089 245.716423,93.8681206 C253.219046,112.050103 257.07809,131.715483 257.050466,151.375338 C257.017318,171.032431 253.10855,190.678474 245.553442,208.813496 C237.976235,226.945755 226.752687,243.503458 212.827532,257.320881 C226.633905,243.384676 237.694473,226.757913 245.092125,208.622892 C252.558837,190.521019 256.404069,170.946797 256.373683,151.375338 C256.343297,131.803879 252.448342,112.248994 244.929145,94.1913191 C237.440334,76.1198321 226.305182,59.6008024 212.468423,45.7889047 C198.659287,31.9493832 182.137495,20.8169936 164.066008,13.3254203 C146.011096,5.80898555 126.456211,1.91403039 106.884752,1.88364421 C87.3132926,1.85602042 67.7390712,5.70125274 49.6344356,13.1652023"/>
    <linearGradient id="vinyl-L" x1="82.873%" x2="41.367%" y1="17.126%" y2="58.633%">
      <stop offset="0%" stop-color="#FEFEFE"/>
      <stop offset="100%" stop-color="#FEFEFE"/>
    </linearGradient>
    <path id="vinyl-N" d="M0.799881635,41.1083996 C13.5317907,28.2716785 28.7902224,17.9228651 45.5022322,10.9307963 C62.2170002,3.96355141 80.3246654,0.35856763 98.44888,0.325469079 C116.570336,0.297886954 134.700067,3.85322291 151.464483,10.7708199 C168.239932,17.6663513 183.600417,27.9462094 196.453688,40.749832 C209.262827,53.6031024 219.539927,68.9663462 226.435458,85.7417949 C233.353055,102.506211 236.908391,120.633183 236.880809,138.757398 C236.850469,156.878854 233.242727,174.98652 226.275482,191.704046 C219.283413,208.416056 208.931841,223.674487 196.09512,236.403638 C221.6803,210.774327 236.376056,174.870675 236.205047,138.757398 C236.174707,120.721446 232.583514,102.702044 225.654884,86.0645057 C218.74832,69.4131767 208.487769,54.1933599 195.736553,41.4669673 C183.015676,28.7157507 167.790343,18.4552001 151.139014,11.5486359 C134.501476,4.62276421 116.484832,1.02881328 98.44888,0.998472938"/>
    <linearGradient id="vinyl-O" x1="82.876%" x2="41.362%" y1="17.124%" y2="58.638%">
      <stop offset="0%" stop-color="#FEFEFE"/>
      <stop offset="100%" stop-color="#FEFEFE"/>
    </linearGradient>
    <path id="vinyl-Q" d="M0.705091307,39.6348912 C12.8968379,27.3383998 27.5087412,17.423475 43.5126482,10.725319 C59.5248245,4.04645805 76.8683626,0.595391647 94.225683,0.562314334 C111.58576,0.534749905 128.945837,3.93895678 145.004872,10.5654453 C161.072178,17.1671258 175.788826,27.0131396 188.101856,39.2765536 C200.370783,51.5895837 210.21404,66.3062318 216.815721,82.373537 C223.444966,98.4325728 226.846416,115.795406 226.816095,133.155483 C226.788531,150.512803 223.331951,167.856341 216.655847,183.868518 C209.957691,199.872425 200.04001,214.484328 187.746275,226.673318 C212.237269,202.121682 226.30891,167.737814 226.143523,133.155483 C226.113202,115.883612 222.670405,98.6310367 216.035647,82.6960408 C209.422941,66.7527756 199.596222,52.1794624 187.387937,39.9932288 C175.20446,27.7821871 160.62839,17.9554685 144.682369,11.3427622 C128.750129,4.70800432 111.494797,1.26520725 94.225683,1.23488638"/>
    <linearGradient id="vinyl-R" x1="82.878%" x2="41.36%" y1="17.123%" y2="58.641%">
      <stop offset="0%" stop-color="#FEFEFE"/>
      <stop offset="100%" stop-color="#FEFEFE"/>
    </linearGradient>
    <path id="vinyl-T" d="M0.563928192,36.6810957 C11.6700724,25.4676325 24.985888,16.4198123 39.5757732,10.3081309 C54.1711619,4.21846359 69.982833,1.06768681 85.808263,1.03466557 C101.633693,1.00989963 117.467378,4.10839279 132.106795,10.1457764 C146.757219,16.1638977 160.177602,25.1401718 171.407576,36.3233656 C182.593522,47.5505877 191.564292,60.9709706 197.585165,75.6213947 C203.622549,90.2635635 206.721042,106.097249 206.693524,121.922679 C206.663255,137.748109 203.512478,153.55978 197.422811,168.155169 C191.311129,182.745054 182.266061,196.060869 171.049846,207.164262 C193.36395,184.773108 206.17344,153.43595 206.019341,121.922679 C205.991823,106.182554 202.852053,90.4616909 196.806414,75.9461036 C190.774534,61.4167573 181.817522,48.1394665 170.692116,37.0360741 C159.594227,25.9079157 146.314184,16.9536557 131.78759,10.9245274 C117.266499,4.87613665 101.548388,1.73636695 85.808263,1.70884924"/>
    <linearGradient id="vinyl-U" x1="82.881%" x2="41.355%" y1="17.119%" y2="58.646%">
      <stop offset="0%" stop-color="#FEFEFE"/>
      <stop offset="100%" stop-color="#FEFEFE"/>
    </linearGradient>
    <path id="vinyl-W" d="M0.525000187,35.1970021 C11.1019673,24.5403229 23.7651917,15.9369167 37.6405893,10.1151868 C51.5214843,4.31819525 66.5595787,1.31112612 81.6169139,1.27264443 C96.6715004,1.25340359 111.734333,4.20824757 125.659207,9.95576271 C139.600573,15.6812883 152.362751,24.2159772 163.066158,34.8396721 C173.692601,45.5375817 182.221793,58.3052564 187.950067,72.2438739 C193.697582,86.1714966 196.652426,101.231581 196.635934,116.288916 C196.594703,131.346251 193.587634,146.384345 187.790643,160.267989 C181.971662,174.140638 173.365507,186.803862 162.708828,197.380829 C183.898495,176.045482 196.088944,146.266152 195.959756,116.288916 C195.924023,101.319539 192.927948,86.3694025 187.172187,72.5654709 C181.435667,58.7505445 172.922967,46.1258018 162.351498,35.554332 C151.780028,24.9801136 139.152536,16.4674142 125.340359,10.7308939 C111.536427,4.97513266 96.5862909,1.9790583 81.6169139,1.9433253"/>
    <linearGradient id="vinyl-X" x1="82.882%" x2="41.35%" y1="17.117%" y2="58.649%">
      <stop offset="0%" stop-color="#FEFEFE"/>
      <stop offset="100%" stop-color="#FEFEFE"/>
    </linearGradient>
    <path id="vinyl-Z" d="M0.663683658,38.1521718 C12.3070633,26.3986371 26.269205,16.9198025 41.5642218,10.5142913 C56.8675001,4.13081115 73.4403145,0.831669978 90.0324059,0.801377363 C106.621743,0.773838622 123.219343,4.02341006 138.566683,10.3545666 C153.922285,16.6636922 167.98632,26.07368 179.759132,37.796922 C191.485128,49.564226 200.892362,63.6310149 207.204241,78.9893708 C213.532644,94.3367111 216.782215,110.931556 216.754676,127.523648 C216.727138,144.112985 213.422489,160.688554 207.041763,175.991832 C200.636251,191.284095 191.157417,205.246237 179.401128,216.89237 C202.80355,193.423855 216.239702,160.567383 216.082731,127.523648 C216.055192,111.01968 212.761559,94.5349901 206.419387,79.311574 C200.102,64.0771425 190.708535,50.1508012 179.043125,38.5101754 C167.405253,26.8420108 153.478911,17.4513002 138.24448,11.1311591 C123.021064,4.79174093 106.536373,1.50086138 90.0324059,1.47056877"/>
    <linearGradient id="vinyl-aa" x1="82.879%" x2="41.357%" y1="17.12%" y2="58.643%">
      <stop offset="0%" stop-color="#FEFEFE"/>
      <stop offset="100%" stop-color="#FEFEFE"/>
    </linearGradient>
    <path id="vinyl-ac" d="M0.4361292,32.5689244 C10.550421,22.3771709 22.6565865,14.1468596 35.9219117,8.57514629 C49.19277,3.03109794 63.5785242,0.153947098 77.9753444,0.115216221 C92.374931,0.0930842919 106.777284,2.92043829 120.095173,8.4146898 C133.426894,13.8895759 145.63542,22.0507249 155.871437,32.2092806 C166.032759,42.4425315 174.191142,54.6538236 179.668794,67.9827782 C185.160279,81.3034333 187.984867,95.7057864 187.968268,110.105373 C187.92677,124.50496 185.04962,138.885181 179.505571,152.158806 C173.933858,165.424131 165.703547,177.530296 155.511793,187.641822 C175.762509,167.236183 187.412203,138.763455 187.287711,110.105373 C187.251747,95.7943142 184.388428,81.5026207 178.883111,68.3064577 C173.397159,55.1019952 165.258142,43.0317941 155.152149,32.9285683 C145.048923,22.8198094 132.978722,14.6807924 119.771493,9.19484032 C106.578097,3.69228934 92.2864033,0.826204458 77.9753444,0.787473582"/>
    <linearGradient id="vinyl-ad" x1="82.884%" x2="41.347%" y1="17.114%" y2="58.653%">
      <stop offset="0%" stop-color="#FEFEFE"/>
      <stop offset="100%" stop-color="#FEFEFE"/>
    </linearGradient>
    <path id="vinyl-af" d="M0.389722249,31.0870866 C9.95588327,21.4380059 21.4126118,13.640797 33.9666434,8.36710866 C46.5317309,3.11276826 60.1471338,0.390240497 73.7791205,0.351544671 C87.4083433,0.32943277 101.043094,3.00497275 113.655169,8.20403339 C126.275537,13.3865101 137.837297,21.1090914 147.525073,30.7277682 C157.146514,40.4155447 164.869095,51.9800687 170.051572,64.597672 C175.253397,77.2097474 177.923409,90.8444981 177.906825,104.476485 C177.865365,118.105708 175.142837,131.72111 169.888497,144.286198 C164.612044,156.842994 156.817599,168.296958 147.168519,177.865883 C166.328481,158.542846 177.345735,131.596731 177.229648,104.476485 C177.190952,90.9329457 174.476716,77.4087545 169.269364,64.9238226 C164.075831,52.4278347 156.372597,41.007038 146.8092,31.446405 C137.251331,21.8802439 125.827771,14.1770106 113.331783,8.98347789 C100.846851,3.77612528 87.3226597,1.06188948 73.7791205,1.02595764"/>
    <linearGradient id="vinyl-ag" x1="82.886%" x2="41.342%" y1="17.112%" y2="58.657%">
      <stop offset="0%" stop-color="#FEFEFE"/>
      <stop offset="100%" stop-color="#FEFEFE"/>
    </linearGradient>
    <path id="vinyl-ai" d="M0.297741646,29.6125257 C9.3236239,20.5037865 20.1309303,13.1433287 31.9822341,8.1553411 C43.8418235,3.19773441 56.6929343,0.626407493 69.5578546,0.587740923 C82.4227749,0.56564574 95.293219,3.0872585 107.199761,7.99515102 C119.111826,12.8864722 130.024085,20.1751206 139.177014,29.253479 C148.255373,38.4008847 155.544021,49.318667 160.435342,61.2307325 C165.340473,73.1345124 167.864848,86.0049565 167.842752,98.8726387 C167.804086,111.737559 165.229997,124.58867 160.275152,136.448259 C155.289927,148.296801 147.926707,159.106869 138.817968,168.132752 C156.894589,149.887654 167.279325,124.458861 167.168849,98.8726387 C167.130183,86.0933372 164.569903,73.333369 159.653725,61.5538746 C154.751356,49.7633326 147.482041,38.9919309 138.458921,29.9715724 C129.438562,20.9456901 118.664399,13.6763749 106.876619,8.77676812 C95.0971243,3.85782801 82.3371561,1.29754868 69.5578546,1.261644"/>
    <linearGradient id="vinyl-aj" x1="82.89%" x2="41.338%" y1="17.11%" y2="58.661%">
      <stop offset="0%" stop-color="#FEFEFE"/>
      <stop offset="100%" stop-color="#FEFEFE"/>
    </linearGradient>
    <path id="vinyl-al" d="M0.251048554,28.1291024 C8.73152389,19.563105 18.8920934,12.6358202 30.0320281,7.94590212 C41.182998,3.28081305 53.2664339,0.861367094 65.3636637,0.82274424 C77.4636522,0.800674037 89.5636408,3.17046204 100.76151,7.78589315 C111.962138,12.3820128 122.227541,19.2348107 130.832161,27.7704616 C139.373329,36.3750818 146.223368,46.6404848 150.819488,57.8438713 C155.434919,69.0389816 157.804707,81.1417289 157.782637,93.2417175 C157.744014,105.338947 155.321809,117.422383 150.662238,128.570594 C145.969561,139.710529 139.042276,149.871099 130.47352,158.351574 C147.462058,141.19475 157.214329,117.289962 157.109496,93.2417175 C157.070873,81.2300097 154.662462,69.2376134 150.038755,58.1666481 C145.4316,47.0874064 138.598113,36.9654597 130.114879,28.4877432 C121.64268,20.004509 111.515216,13.1710226 100.438733,8.56386779 C89.3677677,3.94016035 77.3726126,1.5317495 65.3636637,1.49588542"/>
    <linearGradient id="vinyl-am" x1="82.892%" x2="41.333%" y1="17.107%" y2="58.668%">
      <stop offset="0%" stop-color="#FEFEFE"/>
      <stop offset="100%" stop-color="#FEFEFE"/>
    </linearGradient>
  </defs>
  <g fill="none" fill-rule="evenodd">
    <path fill="#311922" d="M156.49862,313 C70.2024342,313 0,242.792664 0,156.5 C0,70.2045755 70.2024342,0 156.49862,0 C242.794805,0 313,70.2045755 313,156.5 C313,242.792664 242.794805,313 156.49862,313"/>
    <g transform="translate(11.229 53.336)">
      <mask id="vinyl-c" fill="#fff">
        <use xlink:href="#vinyl-a"/>
      </mask>
      <path fill="url(#vinyl-b)" d="M247.250771,204.779431 C233.976062,218.159035 218.065182,228.943873 200.647129,236.228539 C183.218036,243.491122 164.345258,247.24801 145.453159,247.281135 C126.561059,247.305979 107.663438,243.601537 90.1929384,236.388642 C72.7058764,229.20059 56.6956223,218.484761 43.2966958,205.135521 C29.9474564,191.739355 19.2316277,175.726341 12.0435756,158.242039 C4.83068012,140.768779 1.12623857,121.871158 1.15108206,102.981819 C1.18420673,84.0897191 4.94109567,65.2141816 12.2036782,47.7878481 C19.4883438,30.364275 30.2759426,14.4589157 43.6555463,1.18420673 C16.9819109,27.8964876 1.65071241,65.3273575 1.83013767,102.981819 C1.85774155,121.785586 5.60358894,140.570031 12.8247656,157.919074 C20.0238592,175.279158 30.7203652,191.151393 44.0143969,204.420581 C57.2780643,217.714612 73.1530593,228.411118 90.5131435,235.610212 C107.864946,242.831389 126.649391,246.577236 145.453159,246.60484 C183.10486,246.781505 220.53849,231.455827 247.250771,204.779431" mask="url(#vinyl-c)"/>
    </g>
    <g transform="translate(5.614 49.126)">
      <mask id="vinyl-f" fill="#fff">
        <use xlink:href="#vinyl-d"/>
      </mask>
      <path fill="url(#vinyl-e)" d="M257.025605,213.122808 C243.208182,227.045201 226.653242,238.268749 208.520982,245.843194 C190.383198,253.403826 170.739917,257.309831 151.082824,257.340217 C131.422969,257.367841 111.757589,253.511559 93.5756071,246.003412 C75.3825754,238.522888 58.719902,227.371162 44.7781724,213.479155 C30.8834033,199.54295 19.7344395,182.877514 12.2511533,164.68172 C4.74576806,146.499738 0.889486213,126.837121 0.914347629,107.177265 C0.947496184,87.5174101 4.85626324,67.8741291 12.4141337,49.7363451 C19.9913408,31.6068481 31.2148888,15.0491451 45.1372817,1.23172264 C31.3309088,15.1679274 20.2703411,31.7946899 12.8754511,49.9269492 C5.40597677,68.0315848 1.56350682,87.6058062 1.593893,107.177265 C1.62151679,126.748724 5.51647195,146.300847 13.0356691,164.358522 C20.5272424,182.430009 31.659632,198.951801 45.4963911,212.763699 C59.3055264,226.60322 75.8300809,237.732847 93.9015678,245.224421 C111.956481,252.740855 131.511365,256.638573 151.082824,256.668959 C170.654283,256.696583 190.228505,252.851351 208.330378,245.387401 C226.4654,237.989749 243.092162,226.929181 257.025605,213.122808" mask="url(#vinyl-f)"/>
    </g>
    <g transform="translate(16.843 57.547)">
      <mask id="vinyl-i" fill="#fff">
        <use xlink:href="#vinyl-g"/>
      </mask>
      <path fill="url(#vinyl-h)" d="M237.516761,196.425432 C224.785013,209.264772 209.523468,219.618456 192.808048,226.609193 C176.08987,233.580618 157.975751,237.186337 139.850597,237.219443 C121.722685,237.244272 103.592013,233.690969 86.8241769,226.769202 C70.0480642,219.875022 54.6816856,209.590308 41.8257926,196.784073 C29.01404,183.930939 18.7320844,168.561801 11.8351461,151.785689 C4.9188964,135.017852 1.36283501,116.884422 1.39042276,98.7592681 C1.42076929,80.6313555 5.02924741,62.5199955 11.9979139,45.7990583 C18.9886505,29.0836386 29.3423343,13.8248523 42.1816747,1.09034545 C16.5940336,26.7248857 1.89527865,62.6386229 2.06356394,98.7592681 C2.09391047,116.7989 5.68859471,134.81922 12.6186383,151.460153 C19.5266117,168.11488 29.7864971,183.340561 42.5403154,196.06955 C55.266546,208.823368 70.492227,219.086013 87.1469536,225.991227 C103.790645,232.921271 121.810966,236.515955 139.850597,236.543543 C175.971243,236.714587 211.88498,222.015832 237.516761,196.425432" mask="url(#vinyl-i)"/>
    </g>
    <g transform="translate(23.861 61.758)">
      <mask id="vinyl-l" fill="#fff">
        <use xlink:href="#vinyl-j"/>
      </mask>
      <path fill="url(#vinyl-k)" d="M226.336474,188.083119 C214.144728,200.37961 199.532824,210.297291 183.528917,216.995447 C167.519497,223.671552 150.173203,227.125375 132.815882,227.155696 C115.455806,227.18326 98.0929723,223.78181 82.0366929,217.155321 C65.9693878,210.550884 51.2527396,200.70487 38.9397095,188.441456 C26.6707826,176.131183 16.8275253,161.411778 10.2230883,145.344473 C3.59935626,129.288194 0.19790583,111.922604 0.222713815,94.5652835 C0.253034686,77.2052067 3.70961397,59.8616685 10.3857185,43.8522487 C17.0811181,27.8483417 26.9987993,13.2336819 39.2952907,1.04469183 C14.8015398,25.5963279 0.732655735,59.982952 0.895285861,94.5652835 C0.925606732,111.837154 4.3684038,129.08973 11.0031617,145.021969 C17.6186244,160.965234 27.445343,175.541304 39.6536282,187.724781 C51.8371055,199.938579 66.413175,209.765298 82.3564403,216.378004 C98.2886797,223.012762 115.544012,226.455559 132.815882,226.48588 C167.398214,226.64851 201.784838,212.579626 226.336474,188.083119" mask="url(#vinyl-l)"/>
    </g>
    <g transform="translate(35.09 70.18)">
      <mask id="vinyl-o" fill="#fff">
        <use xlink:href="#vinyl-m"/>
      </mask>
      <path fill="url(#vinyl-n)" d="M206.822858,171.39125 C195.716713,182.604713 182.400898,191.649782 167.813764,197.764215 C153.218376,203.853882 137.406705,207.004659 121.581275,207.034929 C105.755845,207.062446 89.9221593,203.963953 75.2827423,197.923818 C60.6295664,191.905696 47.2091835,182.929422 35.9819614,171.74898 C24.7960159,160.521758 15.8224935,147.101375 9.80437226,132.448199 C3.76423684,117.808782 0.665743687,101.975097 0.693261388,86.1496672 C0.726282629,70.3242372 3.87430765,54.5125661 9.96397492,39.9144256 C16.0784081,25.3272922 25.1262283,12.0114766 36.3369398,0.90808414 C14.0255876,23.2964858 1.21609771,54.6363957 1.36744507,86.1496672 C1.39771454,101.88704 4.53748425,117.610655 10.585875,132.126242 C16.6122515,146.652837 25.5692633,159.932879 36.6946699,171.03352 C47.7925588,182.16443 61.0781049,191.11869 75.6046994,197.147819 C90.1202868,203.196209 105.841149,206.333227 121.581275,206.363497 C153.094546,206.514844 184.434456,193.708106 206.822858,171.39125" mask="url(#vinyl-o)"/>
    </g>
    <g transform="translate(40.704 74.39)">
      <mask id="vinyl-r" fill="#fff">
        <use xlink:href="#vinyl-p"/>
      </mask>
      <path fill="url(#vinyl-q)" d="M197.096075,163.040852 C186.516025,173.700637 173.84911,182.306551 159.972418,188.129978 C146.084727,193.928659 131.039501,196.936604 115.980526,196.975097 C100.918802,196.994344 85.8543291,194.038639 71.922647,188.289448 C57.9827164,182.559504 45.21407,174.025077 34.5075434,163.395537 C23.8780026,152.694509 15.3435757,139.923113 9.61363186,125.983183 C3.86444155,112.0515 0.908736347,96.9870272 0.9279828,81.9253033 C0.969225198,66.8635795 3.97442128,51.8211022 9.77585196,37.9334119 C15.5965291,24.0539702 24.2051923,11.3898045 34.8649775,0.809754592 C13.6691343,22.1485714 1.47238246,51.9393304 1.60160864,81.9253033 C1.64010154,96.8990434 4.63704914,111.853537 10.3917384,125.658742 C16.1299308,139.477695 24.6478607,152.108867 35.2224116,162.683418 C45.794213,173.257969 58.4253849,181.775899 72.2443377,187.514091 C86.0522926,193.27153 101.006786,196.268478 115.980526,196.304221 C145.966499,196.430698 175.757258,184.239445 197.096075,163.040852" mask="url(#vinyl-r)"/>
    </g>
    <g transform="translate(29.475 65.969)">
      <mask id="vinyl-u" fill="#fff">
        <use xlink:href="#vinyl-s"/>
      </mask>
      <path fill="url(#vinyl-t)" d="M216.604509,179.732232 C204.955558,191.48861 190.990038,200.972493 175.691321,207.376799 C160.387095,213.761824 143.807517,217.064517 127.214166,217.094817 C110.61806,217.122363 94.0191997,213.872005 78.6681462,207.539317 C63.3088292,201.22591 49.2386371,191.813646 37.4657316,180.090322 C25.7368987,168.320171 16.3273888,154.247225 10.0167369,138.887908 C3.68129406,123.536854 0.430936435,106.935239 0.458481839,90.3418883 C0.488781783,73.7485372 3.79423021,57.1689587 10.1765002,41.861978 C16.5835611,26.5632608 26.064689,12.5977412 37.8238218,0.948790022 C14.4157378,24.422983 0.976335426,57.2901585 1.13058969,90.3418883 C1.16088963,106.847094 4.45256536,123.338527 10.7962718,138.562872 C17.1179419,153.800989 26.5109246,167.7307 38.1819121,179.374142 C49.8225996,191.047884 63.7523102,200.438112 78.9904275,206.759782 C94.214772,213.103488 110.70896,216.39241 127.214166,216.42271 C160.265895,216.579718 193.130316,203.140316 216.604509,179.732232" mask="url(#vinyl-u)"/>
    </g>
    <g transform="translate(44.915 78.6)">
      <mask id="vinyl-x" fill="#fff">
        <use xlink:href="#vinyl-v"/>
      </mask>
      <path fill="url(#vinyl-w)" d="M188.709687,155.847515 C178.598162,166.039268 166.491997,174.26958 153.226671,179.838527 C139.953047,185.385341 125.572825,188.262492 111.173239,188.301223 C96.773652,188.320589 82.3740654,185.496001 69.0506438,180.00175 C55.7216892,174.524097 43.5131636,166.365714 33.2799127,156.204392 C23.115824,145.973908 14.9574415,133.762616 9.47978891,120.430895 C3.98830389,107.113006 1.16094989,92.7106529 1.18031533,78.3110662 C1.2218127,63.9114796 4.09896354,49.5312583 9.64301189,36.2548671 C15.2119587,22.9895418 23.4450365,10.8861428 33.6340235,0.774617534 C13.383308,21.1802566 1.73638006,49.6529839 1.85810567,78.3110662 C1.89683655,92.6221252 4.76015494,106.911052 10.2627059,120.107215 C15.7514244,133.311678 23.8904415,145.381879 33.9936674,155.487871 C44.0996597,165.593863 56.1698608,173.73288 69.3743233,179.221599 C82.5704863,184.72415 96.8621798,187.590235 111.173239,187.626199 C139.828554,187.747925 168.304048,176.100997 188.709687,155.847515" mask="url(#vinyl-x)"/>
    </g>
    <g transform="translate(51.933 82.812)">
      <mask id="vinyl-A" fill="#fff">
        <use xlink:href="#vinyl-y"/>
      </mask>
      <path fill="url(#vinyl-z)" d="M177.572382,147.46202 C168.006221,157.1111 156.549493,164.905545 143.992697,170.181998 C131.42761,175.433574 117.812207,178.158866 104.182984,178.197562 C90.5509972,178.21691 76.9190104,175.544134 64.3069351,170.345073 C51.6865678,165.162596 40.1275717,157.437251 30.4342673,147.818574 C20.8155905,138.130798 13.0930092,126.569038 7.91053246,113.94867 C2.70870783,101.336595 0.0359318386,87.7046082 0.0580437392,74.0726215 C0.0967395654,60.4406347 2.81926733,46.8279959 8.07084374,34.2629083 C13.35006,21.7061127 21.144505,10.2493842 30.7935857,0.68322318 C11.6308597,20.0062604 0.616369231,46.9523753 0.732456709,74.0726215 C0.771152535,87.6161606 3.48262435,101.140352 8.69274095,113.625284 C13.8862736,126.121272 21.589507,137.542068 31.152904,147.102701 C40.7107731,156.666098 52.1343338,164.372096 64.6275576,169.562864 C77.1152535,174.772981 90.6366808,177.487217 104.182984,177.523149 C131.300466,177.639236 158.249345,166.624746 177.572382,147.46202" mask="url(#vinyl-A)"/>
    </g>
    <g transform="translate(57.547 87.022)">
      <mask id="vinyl-D" fill="#fff">
        <use xlink:href="#vinyl-B"/>
      </mask>
      <path fill="url(#vinyl-C)" d="M167.795427,139.118065 C158.76921,148.224356 147.964808,155.582836 136.116689,160.566722 C124.263048,165.525758 111.415391,168.096393 98.5539278,168.13505 C85.6924649,168.154378 72.8227185,165.633443 60.9221378,160.726869 C49.0105124,155.836862 38.1011865,148.550173 28.9562391,139.474254 C19.8775594,130.332068 12.5908697,119.41722 7.70086304,107.508356 C2.79428949,95.6050136 0.273354407,82.7380284 0.295443652,69.8765655 C0.334099831,57.0123414 2.90473572,44.1674454 7.86101007,32.3110432 C12.844896,20.4656855 20.2061369,9.65852238 29.3124281,0.635065794 C11.2434257,18.8724987 0.8587194,44.2944586 0.969165625,69.8765655 C1.0078218,82.6524326 3.56465192,95.4089716 8.48227009,107.1853 C13.3805602,118.969913 20.6506829,129.741181 29.6713784,138.759115 C38.6865515,147.77981 49.4605808,155.047172 61.245193,159.948223 C73.0215217,164.86308 85.7780607,167.425433 98.5539278,167.461328 C124.133274,167.571774 149.557995,157.189829 167.795427,139.118065" mask="url(#vinyl-D)"/>
    </g>
    <g transform="translate(63.161 91.233)">
      <mask id="vinyl-G" fill="#fff">
        <use xlink:href="#vinyl-E"/>
      </mask>
      <path fill="url(#vinyl-F)" d="M158.061273,130.763821 C149.580798,139.332577 139.422987,146.257103 128.280294,150.94978 C117.129324,155.614869 105.051405,158.034315 92.9514169,158.072938 C80.8514283,158.092249 68.748681,155.722461 57.5535707,151.109789 C46.3501842,146.513669 36.08754,139.658112 27.480161,131.122461 C18.9445101,122.5206 12.0889535,112.252438 7.49283377,101.05181 C2.87740266,89.8567002 0.510373434,77.7511941 0.532443637,65.6539643 C0.568307716,53.5539757 2.99051245,41.4732986 7.65560152,30.3223287 C12.3455196,19.182394 19.2728044,9.02182449 27.8388018,0.541349157 C10.8557809,17.7009317 1.10075135,41.602961 1.20558482,65.6539643 C1.24420767,77.665672 3.65261852,89.6553096 8.27356719,100.726275 C12.880722,111.808275 19.7169672,121.930222 28.1974426,130.407939 C36.6696416,138.891173 46.7971058,145.724659 57.8763475,150.331814 C68.9473128,154.955521 80.9397091,157.363932 92.9514169,157.397038 C117.00242,157.50463 140.907208,147.752359 158.061273,130.763821" mask="url(#vinyl-G)"/>
    </g>
    <g transform="translate(53.336 12.632)">
      <mask id="vinyl-J" fill="#fff">
        <use xlink:href="#vinyl-H"/>
      </mask>
      <path fill="url(#vinyl-I)" d="M0.846129297,42.5900363 C14.1180779,29.2104326 30.028958,18.4228338 47.4497707,11.1409286 C64.8761042,3.87558565 83.7516417,0.118696712 102.643742,0.0883324365 C121.535841,0.0607285501 140.430702,3.76793049 157.903962,10.980826 C175.388263,18.168878 191.401278,28.8847067 204.800204,42.2311858 C218.149444,55.6273519 228.862512,71.6431268 236.053325,89.1274284 C243.26346,106.600688 246.970662,125.495549 246.943058,144.387649 C246.909933,163.276988 243.153044,182.152526 235.890462,199.581619 C228.608556,217.002432 217.818197,232.910552 204.441354,246.185261 C231.114989,219.47022 246.446188,182.03935 246.266762,144.387649 C246.236398,125.583881 242.493311,106.796676 235.272135,89.4503939 C228.070281,72.0903097 217.373775,56.218075 204.082503,42.9488868 C190.816075,29.6520948 174.94108,18.9583492 157.580996,11.7592556 C140.231954,4.53807892 121.447509,0.79223154 102.643742,0.761867265 C64.9920405,0.585202392 27.5584102,15.9136405 0.846129297,42.5900363" mask="url(#vinyl-J)"/>
    </g>
    <g transform="translate(49.126 5.614)">
      <mask id="vinyl-M" fill="#fff">
        <use xlink:href="#vinyl-K"/>
      </mask>
      <path fill="url(#vinyl-L)" d="M0.939209045,45.4297953 C14.7566315,31.5074024 31.3143345,20.2838544 49.4465938,12.7066473 C67.5816155,5.14877683 87.2276589,1.24277216 106.884752,1.2096236 C126.544607,1.18199981 146.207225,5.04104403 164.389207,12.5464293 C182.585001,20.0269531 199.244912,31.1814417 213.186641,45.070686 C227.084173,59.0096532 238.233137,75.675089 245.716423,93.8681206 C253.219046,112.050103 257.07809,131.715483 257.050466,151.375338 C257.017318,171.032431 253.10855,190.678474 245.553442,208.813496 C237.976235,226.945755 226.752687,243.503458 212.827532,257.320881 C226.633905,243.384676 237.694473,226.757913 245.092125,208.622892 C252.558837,190.521019 256.404069,170.946797 256.373683,151.375338 C256.343297,131.803879 252.448342,112.248994 244.929145,94.1913191 C237.440334,76.1198321 226.305182,59.6008024 212.468423,45.7889047 C198.659287,31.9493832 182.137495,20.8169936 164.066008,13.3254203 C146.011096,5.80898555 126.456211,1.91403039 106.884752,1.88364421 C87.3132926,1.85602042 67.7390712,5.70125274 49.6344356,13.1652023 C31.5021763,20.5628547 14.8726515,31.6234224 0.939209045,45.4297953" mask="url(#vinyl-M)"/>
    </g>
    <g transform="translate(57.547 18.247)">
      <mask id="vinyl-P" fill="#fff">
        <use xlink:href="#vinyl-N"/>
      </mask>
      <path fill="url(#vinyl-O)" d="M0.799881635,41.1083996 C13.5317907,28.2716785 28.7902224,17.9228651 45.5022322,10.9307963 C62.2170002,3.96355141 80.3246654,0.35856763 98.44888,0.325469079 C116.570336,0.297886954 134.700067,3.85322291 151.464483,10.7708199 C168.239932,17.6663513 183.600417,27.9462094 196.453688,40.749832 C209.262827,53.6031024 219.539927,68.9663462 226.435458,85.7417949 C233.353055,102.506211 236.908391,120.633183 236.880809,138.757398 C236.850469,156.878854 233.242727,174.98652 226.275482,191.704046 C219.283413,208.416056 208.931841,223.674487 196.09512,236.403638 C221.6803,210.774327 236.376056,174.870675 236.205047,138.757398 C236.174707,120.721446 232.583514,102.702044 225.654884,86.0645057 C218.74832,69.4131767 208.487769,54.1933599 195.736553,41.4669673 C183.015676,28.7157507 167.790343,18.4552001 151.139014,11.5486359 C134.501476,4.62276421 116.484832,1.02881328 98.44888,0.998472938 C62.3356033,0.827463761 26.4264343,15.5259784 0.799881635,41.1083996" mask="url(#vinyl-P)"/>
    </g>
    <g transform="translate(61.758 23.861)">
      <mask id="vinyl-S" fill="#fff">
        <use xlink:href="#vinyl-Q"/>
      </mask>
      <path fill="url(#vinyl-R)" d="M0.705091307,39.6348912 C12.8968379,27.3383998 27.5087412,17.423475 43.5126482,10.725319 C59.5248245,4.04645805 76.8683626,0.595391647 94.225683,0.562314334 C111.58576,0.534749905 128.945837,3.93895678 145.004872,10.5654453 C161.072178,17.1671258 175.788826,27.0131396 188.101856,39.2765536 C200.370783,51.5895837 210.21404,66.3062318 216.815721,82.373537 C223.444966,98.4325728 226.846416,115.795406 226.816095,133.155483 C226.788531,150.512803 223.331951,167.856341 216.655847,183.868518 C209.957691,199.872425 200.04001,214.484328 187.746275,226.673318 C212.237269,202.121682 226.30891,167.737814 226.143523,133.155483 C226.113202,115.883612 222.670405,98.6310367 216.035647,82.6960408 C209.422941,66.7527756 199.596222,52.1794624 187.387937,39.9932288 C175.20446,27.7821871 160.62839,17.9554685 144.682369,11.3427622 C128.750129,4.70800432 111.494797,1.26520725 94.225683,1.23488638 C59.6433515,1.07225625 25.2567274,15.1411404 0.705091307,39.6348912" mask="url(#vinyl-S)"/>
    </g>
    <g transform="translate(70.18 35.09)">
      <mask id="vinyl-V" fill="#fff">
        <use xlink:href="#vinyl-T"/>
      </mask>
      <path fill="url(#vinyl-U)" d="M0.563928192,36.6810957 C11.6700724,25.4676325 24.985888,16.4198123 39.5757732,10.3081309 C54.1711619,4.21846359 69.982833,1.06768681 85.808263,1.03466557 C101.633693,1.00989963 117.467378,4.10839279 132.106795,10.1457764 C146.757219,16.1638977 160.177602,25.1401718 171.407576,36.3233656 C182.593522,47.5505877 191.564292,60.9709706 197.585165,75.6213947 C203.622549,90.2635635 206.721042,106.097249 206.693524,121.922679 C206.663255,137.748109 203.512478,153.55978 197.422811,168.155169 C191.311129,182.745054 182.266061,196.060869 171.049846,207.164262 C193.36395,184.773108 206.17344,153.43595 206.019341,121.922679 C205.991823,106.182554 202.852053,90.4616909 196.806414,75.9461036 C190.774534,61.4167573 181.817522,48.1394665 170.692116,37.0360741 C159.594227,25.9079157 146.314184,16.9536557 131.78759,10.9245274 C117.266499,4.87613665 101.548388,1.73636695 85.808263,1.70884924 C54.2949916,1.55750189 22.9550817,14.36424 0.563928192,36.6810957" mask="url(#vinyl-V)"/>
    </g>
    <g transform="translate(74.39 40.704)">
      <mask id="vinyl-Y" fill="#fff">
        <use xlink:href="#vinyl-W"/>
      </mask>
      <path fill="url(#vinyl-X)" d="M0.525000187,35.1970021 C11.1019673,24.5403229 23.7651917,15.9369167 37.6405893,10.1151868 C51.5214843,4.31819525 66.5595787,1.31112612 81.6169139,1.27264443 C96.6715004,1.25340359 111.734333,4.20824757 125.659207,9.95576271 C139.600573,15.6812883 152.362751,24.2159772 163.066158,34.8396721 C173.692601,45.5375817 182.221793,58.3052564 187.950067,72.2438739 C193.697582,86.1714966 196.652426,101.231581 196.635934,116.288916 C196.594703,131.346251 193.587634,146.384345 187.790643,160.267989 C181.971662,174.140638 173.365507,186.803862 162.708828,197.380829 C183.898495,176.045482 196.088944,146.266152 195.959756,116.288916 C195.924023,101.319539 192.927948,86.3694025 187.172187,72.5654709 C181.435667,58.7505445 172.922967,46.1258018 162.351498,35.554332 C151.780028,24.9801136 139.152536,16.4674142 125.340359,10.7308939 C111.536427,4.97513266 96.5862909,1.9790583 81.6169139,1.9433253 C51.6396781,1.81413677 21.8575994,14.0045861 0.525000187,35.1970021" mask="url(#vinyl-Y)"/>
    </g>
    <g transform="translate(65.969 29.475)">
      <mask id="vinyl-ab" fill="#fff">
        <use xlink:href="#vinyl-Z"/>
      </mask>
      <path fill="url(#vinyl-aa)" d="M0.663683658,38.1521718 C12.3070633,26.3986371 26.269205,16.9198025 41.5642218,10.5142913 C56.8675001,4.13081115 73.4403145,0.831669978 90.0324059,0.801377363 C106.621743,0.773838622 123.219343,4.02341006 138.566683,10.3545666 C153.922285,16.6636922 167.98632,26.07368 179.759132,37.796922 C191.485128,49.564226 200.892362,63.6310149 207.204241,78.9893708 C213.532644,94.3367111 216.782215,110.931556 216.754676,127.523648 C216.727138,144.112985 213.422489,160.688554 207.041763,175.991832 C200.636251,191.284095 191.157417,205.246237 179.401128,216.89237 C202.80355,193.423855 216.239702,160.567383 216.082731,127.523648 C216.055192,111.01968 212.761559,94.5349901 206.419387,79.311574 C200.102,64.0771425 190.708535,50.1508012 179.043125,38.5101754 C167.405253,26.8420108 153.478911,17.4513002 138.24448,11.1311591 C123.021064,4.79174093 106.536373,1.50086138 90.0324059,1.47056877 C56.9886706,1.31635182 24.1294449,14.7497497 0.663683658,38.1521718" mask="url(#vinyl-ab)"/>
    </g>
    <g transform="translate(78.6 46.318)">
      <mask id="vinyl-ae" fill="#fff">
        <use xlink:href="#vinyl-ac"/>
      </mask>
      <path fill="url(#vinyl-ad)" d="M0.4361292,32.5689244 C10.550421,22.3771709 22.6565865,14.1468596 35.9219117,8.57514629 C49.19277,3.03109794 63.5785242,0.153947098 77.9753444,0.115216221 C92.374931,0.0930842919 106.777284,2.92043829 120.095173,8.4146898 C133.426894,13.8895759 145.63542,22.0507249 155.871437,32.2092806 C166.032759,42.4425315 174.191142,54.6538236 179.668794,67.9827782 C185.160279,81.3034333 187.984867,95.7057864 187.968268,110.105373 C187.92677,124.50496 185.04962,138.885181 179.505571,152.158806 C173.933858,165.424131 165.703547,177.530296 155.511793,187.641822 C175.762509,167.236183 187.412203,138.763455 187.287711,110.105373 C187.251747,95.7943142 184.388428,81.5026207 178.883111,68.3064577 C173.397159,55.1019952 165.258142,43.0317941 155.152149,32.9285683 C145.048923,22.8198094 132.978722,14.6807924 119.771493,9.19484032 C106.578097,3.69228934 92.2864033,0.826204458 77.9753444,0.787473582 C49.3172621,0.66851446 20.8417682,12.3126759 0.4361292,32.5689244" mask="url(#vinyl-ae)"/>
    </g>
    <g transform="translate(82.812 51.933)">
      <mask id="vinyl-ah" fill="#fff">
        <use xlink:href="#vinyl-af"/>
      </mask>
      <path fill="url(#vinyl-ag)" d="M0.389722249,31.0870866 C9.95588327,21.4380059 21.4126118,13.640797 33.9666434,8.36710866 C46.5317309,3.11276826 60.1471338,0.390240497 73.7791205,0.351544671 C87.4083433,0.32943277 101.043094,3.00497275 113.655169,8.20403339 C126.275537,13.3865101 137.837297,21.1090914 147.525073,30.7277682 C157.146514,40.4155447 164.869095,51.9800687 170.051572,64.597672 C175.253397,77.2097474 177.923409,90.8444981 177.906825,104.476485 C177.865365,118.105708 175.142837,131.72111 169.888497,144.286198 C164.612044,156.842994 156.817599,168.296958 147.168519,177.865883 C166.328481,158.542846 177.345735,131.596731 177.229648,104.476485 C177.190952,90.9329457 174.476716,77.4087545 169.269364,64.9238226 C164.075831,52.4278347 156.372597,41.007038 146.8092,31.446405 C137.251331,21.8802439 125.827771,14.1770106 113.331783,8.98347789 C100.846851,3.77612528 87.3226597,1.06188948 73.7791205,1.02595764 C46.6588744,0.907106175 19.7099954,11.9215967 0.389722249,31.0870866" mask="url(#vinyl-ah)"/>
    </g>
    <g transform="translate(87.022 57.547)">
      <mask id="vinyl-ak" fill="#fff">
        <use xlink:href="#vinyl-ai"/>
      </mask>
      <path fill="url(#vinyl-aj)" d="M0.297741646,29.6125257 C9.3236239,20.5037865 20.1309303,13.1433287 31.9822341,8.1553411 C43.8418235,3.19773441 56.6929343,0.626407493 69.5578546,0.587740923 C82.4227749,0.56564574 95.293219,3.0872585 107.199761,7.99515102 C119.111826,12.8864722 130.024085,20.1751206 139.177014,29.253479 C148.255373,38.4008847 155.544021,49.318667 160.435342,61.2307325 C165.340473,73.1345124 167.864848,86.0049565 167.842752,98.8726387 C167.804086,111.737559 165.229997,124.58867 160.275152,136.448259 C155.289927,148.296801 147.926707,159.106869 138.817968,168.132752 C156.894589,149.887654 167.279325,124.458861 167.168849,98.8726387 C167.130183,86.0933372 164.569903,73.333369 159.653725,61.5538746 C154.751356,49.7633326 147.482041,38.9919309 138.458921,29.9715724 C129.438562,20.9456901 118.664399,13.6763749 106.876619,8.77676812 C95.0971243,3.85782801 82.3371561,1.29754868 69.5578546,1.261644 C43.9688708,1.15116809 18.5400771,11.5359041 0.297741646,29.6125257" mask="url(#vinyl-ak)"/>
    </g>
    <g transform="translate(91.233 63.161)">
      <mask id="vinyl-an" fill="#fff">
        <use xlink:href="#vinyl-al"/>
      </mask>
      <path fill="url(#vinyl-am)" d="M0.251048554,28.1291024 C8.73152389,19.563105 18.8920934,12.6358202 30.0320281,7.94590212 C41.182998,3.28081305 53.2664339,0.861367094 65.3636637,0.82274424 C77.4636522,0.800674037 89.5636408,3.17046204 100.76151,7.78589315 C111.962138,12.3820128 122.227541,19.2348107 130.832161,27.7704616 C139.373329,36.3750818 146.223368,46.6404848 150.819488,57.8438713 C155.434919,69.0389816 157.804707,81.1417289 157.782637,93.2417175 C157.744014,105.338947 155.321809,117.422383 150.662238,128.570594 C145.969561,139.710529 139.042276,149.871099 130.47352,158.351574 C147.462058,141.19475 157.214329,117.289962 157.109496,93.2417175 C157.070873,81.2300097 154.662462,69.2376134 150.038755,58.1666481 C145.4316,47.0874064 138.598113,36.9654597 130.114879,28.4877432 C121.64268,20.004509 111.515216,13.1710226 100.438733,8.56386779 C89.3677677,3.94016035 77.3726126,1.5317495 65.3636637,1.49588542 C41.3126604,1.39105196 17.4078723,11.1433227 0.251048554,28.1291024" mask="url(#vinyl-an)"/>
    </g>
    <path fill="#E51E41" d="M234.375307,154.59101 C235.428102,197.598938 201.417039,233.322511 158.406363,234.375307 C115.398436,235.428102 79.6776116,201.417039 78.6248163,158.406362 C77.5692721,115.398434 111.580335,79.6776098 154.591011,78.6248144 C197.601687,77.5692702 233.319762,111.583082 234.375307,154.59101"/>
    <path fill="#FEFEFE" d="M129.203778,126.501993 C128.330161,126.736334 126.759862,128.715828 126.030004,133.209665 C125.167446,138.503019 125.750779,145.35681 127.672184,152.508353 C129.115311,157.870631 130.815547,162.256947 132.725893,165.545995 C133.068705,166.133226 133.21523,166.786624 133.17929,167.423481 C135.214044,165.829961 137.62755,164.360504 140.439159,163.004082 C139.607011,160.553148 138.863331,158.7501 138.235764,157.429518 C135.891374,158.013992 134.169021,157.412976 133.132291,156.798175 C131.744456,155.976602 130.740902,154.636722 130.306858,153.02666 C129.366891,149.525327 131.307648,146.070862 134.721943,145.155553 C135.393744,144.976351 136.109778,144.849531 136.850694,144.780607 C136.900457,142.919662 136.618466,140.044157 135.449036,135.690925 C133.889795,129.893048 130.868075,126.058123 129.203778,126.501993 M173.042222,170.318284 C173.255097,171.285976 173.48456,172.239882 173.733375,173.177247 C173.965603,174.03466 174.665049,176.64274 175.79854,178.393407 C176.575396,179.600953 177.059203,179.736044 177.371604,179.700203 C177.587244,179.010965 177.512599,176.860539 176.094353,174.169751 C175.378319,172.810572 174.327767,171.382469 173.042222,170.318284 M143.596346,174.409606 C140.558038,177.599403 141.072255,181.839601 142.122808,185.754477 C142.556852,187.370053 143.082128,188.334988 143.463644,188.847781 C144.254323,187.383838 145.340816,183.04439 143.596346,174.409606 M145.780389,200.137514 C136.941926,202.500224 128.144932,197.386072 125.759073,188.494891 C124.324239,183.162939 124.863338,178.272101 127.351489,173.954708 C127.777239,173.218601 128.255517,172.50455 128.789087,171.809797 C127.901646,172.261938 126.981031,172.645155 126.016181,172.904308 C122.759469,173.772749 119.751572,172.973232 117.315949,170.591223 C114.963265,168.286408 113.072271,164.39083 111.537911,158.683933 C108.574248,147.642326 108.814769,137.656634 112.237358,129.804825 C115.38625,122.589873 120.990118,117.583242 128.020525,115.702998 C141.116489,112.204422 149.183625,124.654832 150.850686,130.871767 C151.326199,132.641732 152.089232,136.228531 151.843182,140.366721 C151.657953,143.581331 150.908743,146.423752 149.614905,148.860901 C151.21285,150.164941 152.863323,151.932149 154.339626,154.316915 C154.137809,145.205178 155.213243,135.781904 157.438755,127.659914 C157.756686,126.493722 158.674537,125.586683 159.841203,125.275147 C159.877143,125.266877 159.907553,125.258606 159.943493,125.250335 C164.018531,124.296428 167.048545,124.723756 169.210471,126.554375 C172.962049,129.730387 172.563945,135.605459 172.011022,143.735721 C171.787089,147.038553 171.538274,150.677734 171.527215,154.592611 C174.076187,154.195609 176.580925,153.834448 179.027606,153.481558 C185.250747,152.585547 191.128311,151.736405 195.524043,150.564699 C200.190707,149.315798 201.866062,148.042085 202.449395,147.192943 C202.916614,146.511975 203.607767,146.037778 204.376329,145.833764 C204.871194,145.70143 205.402,145.679374 205.924511,145.784138 C207.259818,146.048806 208.310371,147.082664 208.592361,148.414274 C210.618821,158.027777 206.958476,164.153732 197.713615,166.623964 C195.4024,167.241522 192.795371,167.641281 190.116463,167.908705 C191.772465,170.381694 192.637788,173.284768 192.488499,176.28985 C192.151217,182.953411 186.975864,188.26055 178.651619,190.485413 C174.358177,191.632306 170.249965,191.056103 166.772084,188.820212 C163.750363,186.879315 161.472323,183.907317 159.752735,180.535561 C158.721535,192.274677 152.307636,198.395118 145.780389,200.137514"/>
    <path fill="#311922" d="M179.101934,183.582528 C174.189865,184.894171 172.008255,178.019729 171.120167,174.719996 C170.317577,171.736488 169.771485,168.810725 169.410182,165.972955 C169.639099,165.964706 169.868017,165.959206 170.094176,165.953707 C179.471511,166.514661 184.957253,182.017904 179.101934,183.582528 M139.584738,187.264479 C136.997697,177.645759 140.2577,172.415683 146.499144,169.536666 C146.534999,169.682404 146.576369,169.825393 146.61774,169.973881 C152.966748,193.602715 142.737178,199.006027 139.584738,187.264479 M168.869606,159.285497 C168.116661,140.00131 174.115398,126.370665 161.42014,129.337675 C158.758632,139.060886 157.826414,150.835432 158.816551,161.298334 C157.796076,161.540314 156.781117,161.793294 155.777191,162.062772 C155.407613,162.161764 155.043552,162.260756 154.685007,162.359748 C152.610961,155.972016 149.138588,152.356059 145.611055,150.502709 C150.476238,144.978407 149.353716,136.470596 148.29187,132.524666 C147.260363,128.688727 140.999613,116.768443 129.677859,119.790448 C118.358863,122.815203 109.651731,136.247864 115.636678,158.51006 C119.815108,174.05455 125.579412,171.247028 130.549399,167.930796 C128.855963,165.016033 126.922577,160.632888 125.168464,154.104917 C120.752842,137.669499 123.712219,125.457739 129.095912,124.016856 C134.482364,122.578722 138.233299,130.905048 139.490965,135.579669 C140.561084,139.572345 141.689123,145.236886 140.500407,148.921587 C138.925567,148.748351 137.491386,148.866592 136.363348,149.166317 C132.890975,150.095742 133.812161,156.013262 138.249847,154.828108 C139.091049,154.602627 139.871574,154.335898 140.594181,154.030673 C142.08628,156.312988 143.683186,160.088432 145.349042,165.54124 C130.121903,171.915223 127.689312,180.318542 129.821277,188.2434 C134.201044,204.535829 163.670701,201.981286 155.90406,166.976624 C157.067953,166.803388 158.264943,166.65765 159.489512,166.536659 C161.80075,180.439532 167.940147,190.635706 178.428972,187.833683 C193.912608,183.698018 191.935094,169.544915 181.802055,165.711726 C187.704261,165.53849 193.187244,165.17277 197.4429,164.034362 C205.87147,161.782295 207.256006,156.502723 205.849405,149.842763 C201.891618,155.600796 185.817761,156.389982 168.869606,159.285497"/>
    <g fill="#1D1D1B" transform="translate(85.619 82.812)">
      <path d="M25.1070129 119.166841L21.8497917 124.5863C21.8195304 124.644159 21.7700118 124.726814 21.7067381 124.826001 21.6434644 124.925188 21.5801906 125.02713 21.5114149 125.129072 21.4453901 125.231014 21.3821164 125.330201 21.3298468 125.423877 21.2720751 125.517554 21.2253076 125.589189 21.1840421 125.641537L21.2060504 125.660824C21.263822 125.627761 21.3380999 125.583678 21.4316349 125.528575 21.5196679 125.470716 21.6187051 125.410101 21.7232443 125.346732 21.8305345 125.283363 21.9350737 125.222749 22.0368618 125.16489 22.141401 125.107031 22.223932 125.062947 22.2817036 125.03264L27.8883056 122.029483 28.7878929 122.957982 28.6420882 123.104007 20.5513049 127.316693 19.5691867 126.311049 23.3821162 119.825331 23.36561 119.806045 16.8071512 123.467692 15.830535 122.459293 20.2569445 114.471996 20.4055002 114.328727 21.3078385 115.257226 18.1579076 120.786892C18.1248952 120.844751 18.0753766 120.924652 18.020356 121.029349 17.9570823 121.131291 17.8965596 121.235988 17.8277838 121.33793 17.7617591 121.439872 17.7039874 121.539059 17.6434647 121.632736 17.5884441 121.726412 17.5416766 121.798047 17.5004111 121.850396L17.5196683 121.866927C17.580191 121.83662 17.6544688 121.792537 17.7452529 121.737433 17.8360369 121.679574 17.935074 121.61896 18.0423643 121.55559 18.1469035 121.492221 18.2486916 121.428852 18.3504798 121.368237 18.4495169 121.307623 18.5292968 121.26354 18.5898195 121.230478L24.0918823 118.119868 25.1070129 119.166841zM34.440162 126.938681L32.255843 132.873361C32.2338348 132.93673 32.2035735 133.022141 32.159557 133.132348 32.1155404 133.242556 32.0715239 133.355519 32.0247564 133.468482 31.9779889 133.581444 31.9394744 133.688897 31.898209 133.790839 31.8624456 133.892781 31.8294332 133.972681 31.7991718 134.033296L31.8211801 134.049827C31.8734497 134.005744 31.9367234 133.947885 32.0165033 133.87625 32.0962832 133.80186 32.1815652 133.724714 32.2723492 133.642059 32.3631333 133.559403 32.4539173 133.482258 32.5502034 133.405112 32.6382364 133.330722 32.7097632 133.270108 32.7647839 133.22878L37.7056362 129.230999 38.7647833 129.972145 38.646489 130.142967 31.4883053 135.796617 30.3383742 134.992102 32.8748251 127.908508 32.8500658 127.891977 27.0949082 132.716315 25.942226 131.911799 28.8005476 123.235705 28.918842 123.067639 29.9779891 123.808785 27.9174665 129.831631C27.8954583 129.895 27.8624459 129.980411 27.8294335 130.096129 27.785417 130.206336 27.7441516 130.319299 27.7001351 130.432262 27.6506165 130.54798 27.609351 130.655432 27.5735876 130.757375 27.5323222 130.859317 27.5020608 130.941972 27.4717995 130.997076L27.4965587 131.013607C27.5433263 130.972279 27.6121021 130.91442 27.691882 130.84003 27.7716619 130.768395 27.8541928 130.688495 27.9477279 130.608594 28.0357609 130.525939 28.1265449 130.446038 28.2145779 130.368893 28.305362 130.288992 28.3741378 130.228378 28.4236563 130.18705L33.2434633 126.101103 34.440162 126.938681zM45.0599684 132.824318L44.0228296 139.064824C44.0118255 139.130948 43.9953193 139.22187 43.973311 139.337588 43.9513028 139.453306 43.9292945 139.571779 43.9072863 139.693007 43.879776 139.81148 43.8577677 139.927198 43.8467636 140.034651 43.8247554 140.139348 43.8054981 140.224759 43.7889919 140.288128L43.8165023 140.299149C43.8577677 140.2468 43.9100373 140.180676 43.973311 140.09251 44.0365848 140.004344 44.1081116 139.913422 44.1823894 139.816991 44.2539163 139.717804 44.3309451 139.624128 44.407974 139.533206 44.4850029 139.43953 44.5455256 139.37065 44.58404 139.318301L48.6940809 134.463656 49.8770244 134.995408 49.7917424 135.182761 43.8165023 142.081757 42.5345216 141.505922 43.7009589 134.072419 43.6761997 134.058643 38.9224174 139.88036 37.6404368 139.304525 38.8261313 130.242705 38.9141643 130.055352 40.0916058 130.587104 39.1920185 136.890979C39.1837654 136.957103 39.1672592 137.048025 39.1535041 137.166498 39.1342468 137.282216 39.1122386 137.403444 39.0902303 137.521917 39.06272 137.643146 39.0434628 137.756109 39.0269566 137.863561 39.0076994 137.973769 38.9884422 138.056424 38.971936 138.119794L38.9966953 138.130814C39.0407118 138.078466 39.0929814 138.009586 39.1562551 137.924175 39.2222798 137.836009 39.2910556 137.745088 39.3653335 137.645901 39.4396113 137.549469 39.5083871 137.453038 39.585416 137.359361 39.6541918 137.265685 39.7147145 137.19405 39.7559799 137.144456L43.7312203 132.226442 45.0599684 132.824318zM49.4739983 143.218273C49.3942184 143.463485 49.2511648 143.628796 49.0393354 143.714207 48.830257 143.802373 48.6074234 143.807884 48.3708347 143.730738 48.1369971 143.656348 47.955429 143.521344 47.8343836 143.328481 47.7133382 143.135617 47.694081 142.917957 47.7711099 142.672745L47.782114 142.631418C47.8618939 142.37794 48.0104496 142.212629 48.216777 142.135483 48.4231043 142.058338 48.6459379 142.055583 48.8825266 142.129973 49.1163642 142.207118 49.3006833 142.336612 49.4189777 142.52121 49.5455251 142.705808 49.5675334 142.926223 49.4850024 143.176945L49.4739983 143.218273zM55.3521271 137.51007L54.7881657 140.135766 56.9944928 140.609659C57.2173264 140.659252 57.4098986 140.656497 57.5804625 140.604149 57.7427734 140.549045 57.888578 140.463634 58.0068724 140.350671 58.1251667 140.234953 58.2214528 140.099949 58.2957307 139.940148 58.3727596 139.783102 58.4277802 139.623301 58.4635436 139.460745 58.4910539 139.336761 58.502058 139.201757 58.496556 139.052977 58.4883029 138.906952 58.4525395 138.760926 58.3865147 138.612146 58.3177389 138.466121 58.2104487 138.336627 58.061893 138.218154 57.9133373 138.102436 57.712512 138.01978 57.4649192 137.964676L55.3521271 137.51007zM54.551577 141.240598L53.9491011 144.02885 56.2929798 144.530295C56.6038464 144.599174 56.8679454 144.610195 57.0715217 144.560602 57.2806001 144.511008 57.451164 144.428353 57.5832135 144.318145 57.712512 144.205182 57.8170512 144.070178 57.888578 143.918642 57.9573538 143.764352 58.0096234 143.610061 58.0398848 143.458526 58.0701461 143.323521 58.0839013 143.169231 58.0839013 142.995654 58.0839013 142.822077 58.0453868 142.651255 57.9683579 142.488699 57.8913291 142.328898 57.7675326 142.180117 57.5969687 142.045113 57.4319068 141.910109 57.1980691 141.810922 56.9037088 141.747553L54.551577 141.240598zM58.3067348 141.372847C58.4717967 141.474789 58.6286055 141.607038 58.7744101 141.775104 58.9229658 141.945926 59.0440112 142.133279 59.1402973 142.342674 59.2365834 142.549313 59.3053592 142.775239 59.3383716 143.012185 59.379637 143.249131 59.3713839 143.491588 59.3191143 143.73129L59.3026082 143.813945C59.2145752 144.218958 59.0715215 144.557847 58.8706962 144.836121 58.672622 145.108885 58.4305312 145.323789 58.1444239 145.475325 57.8583167 145.624105 57.539197 145.712271 57.187065 145.739823 56.832182 145.767375 56.4635438 145.739823 56.0783994 145.657167L52.4442869 144.874693 54.3259924 136.118699 57.5529522 136.815762C57.9298435 136.895663 58.2737224 137.016891 58.5790869 137.176692 58.8872024 137.336493 59.1457994 137.534867 59.3466247 137.771813 59.54745 138.006004 59.6877526 138.284279 59.7647814 138.601125 59.8445613 138.917972 59.8390593 139.278902 59.7537773 139.683915L59.7372711 139.763816C59.638234 140.212912 59.459417 140.568331 59.20082 140.827319 58.9477251 141.086307 58.6478627 141.259884 58.3122369 141.345295L58.3067348 141.372847zM65.370283 142.343776C65.6536392 142.365817 65.9039831 142.343776 66.1185635 142.274896 66.335895 142.203261 66.5202141 142.104074 66.6715208 141.966315 66.8173255 141.83131 66.9356199 141.671509 67.0209018 141.484156 67.1034328 141.296803 67.1529513 141.101185 67.1722086 140.889035 67.210723 140.439939 67.119939 140.048702 66.9053585 139.712569 66.688027 139.376436 66.2973806 139.186328 65.7279171 139.136734L63.6013698 138.963157 63.3427729 142.175709 65.370283 142.343776zM61.6783989 146.630852L62.4101732 137.704035 65.8379583 137.98782C66.2368579 138.020882 66.6082471 138.106293 66.946624 138.249563 67.2850008 138.392833 67.5738591 138.585696 67.8104478 138.825398 68.0497876 139.067855 68.2313556 139.354394 68.3551521 139.693283 68.4761974 140.029416 68.522965 140.415143 68.4872016 140.844952L68.4679443 141.079143C68.437683 141.434563 68.3551521 141.75141 68.2176005 142.024174 68.0800489 142.299693 67.9039829 142.533884 67.6839004 142.735013 67.4665689 142.933386 67.213474 143.090432 66.9273668 143.203395 66.6412595 143.319113 66.338646 143.396258 66.0112733 143.432076L68.3001314 146.966985 68.2863763 147.173624 66.8035703 147.049641 64.492704 143.459628 63.2464868 143.357686 62.9658816 146.735549 61.6783989 146.630852zM74.0129232 139.685568L73.9441474 139.92527 73.8643675 140.21732C73.8423593 140.313752 73.820351 140.399163 73.7955917 140.476308 73.7708324 140.556208 73.7515752 140.614067 73.732318 140.65264L72.6484116 143.826619 75.834106 143.658552 74.4090717 140.589271C74.3953166 140.553453 74.3733083 140.495594 74.3375449 140.421204 74.2990305 140.344059 74.2632671 140.261403 74.2275037 140.170482 74.1889892 140.07956 74.1559768 139.988639 74.1229645 139.900473 74.0899521 139.809552 74.0651928 139.737917 74.0431846 139.685568L74.0129232 139.685568zM76.362304 144.790936L72.2577652 145.00584 71.5177377 147.17142 70.1972427 147.2403 70.1862385 147.03366 73.4076963 138.104089 74.5356192 138.043475 78.6896766 146.581809 78.7034317 146.791204 77.327916 146.862839 76.362304 144.790936zM79.6924275 139.894136C79.6209007 139.51392 79.6346559 139.161256 79.7501992 138.830633 79.8574894 138.50001 80.0253023 138.20796 80.256389 137.951727 80.4874756 137.701005 80.7680808 137.4861 81.0927025 137.315278 81.4200752 137.144456 81.7612031 137.023228 82.1243393 136.954348 82.5287409 136.877203 82.9193873 136.855161 83.2990297 136.888224 83.6704189 136.924041 84.0087958 137.017718 84.3086582 137.169253 84.6085206 137.323544 84.8671176 137.535693 85.084449 137.805702 85.2962785 138.078466 85.4503362 138.411844 85.5356182 138.805836L85.5576264 138.916044 84.3664298 139.144724C84.3141603 138.957371 84.2316293 138.783795 84.1243391 138.623993 84.0197999 138.458682 83.8822483 138.326433 83.7199375 138.216225 83.5548756 138.108773 83.3595524 138.034383 83.1367188 137.993055 82.9138853 137.951727 82.6635414 137.957237 82.3856872 138.012341 81.8162237 138.119794 81.4283283 138.331943 81.2164989 138.637769 81.0046695 138.946351 80.9303916 139.271463 80.9964164 139.613107 81.0349308 139.81148 81.0954535 139.974037 81.1752334 140.09802 81.2550133 140.224759 81.3678056 140.337722 81.5218634 140.439664 81.7034315 140.560892 81.9647794 140.638038 82.3059073 140.665589 82.6470352 140.693141 83.0184245 140.715183 83.417324 140.737224 83.8107215 140.759266 84.2123721 140.803349 84.6057696 140.863963 85.0101712 140.927332 85.3595522 141.065092 85.6621656 141.277242 85.9097585 141.445308 86.1160858 141.662968 86.2838987 141.930222 86.4517116 142.197475 86.5645039 142.472994 86.6222756 142.765044L86.6442838 142.897293C86.7378189 143.376697 86.7240637 143.798241 86.5975163 144.164681 86.4709689 144.531121 86.2838987 144.845213 86.0308038 145.106956 85.7749579 145.374209 85.4805976 145.583604 85.1367186 145.74616 84.7928397 145.905961 84.4489608 146.016169 84.1078329 146.082293 83.6731699 146.167704 83.2577642 146.18699 82.8506116 146.137397 82.4462099 146.090559 82.0775717 145.974841 81.750199 145.795753 81.4200752 145.616666 81.136719 145.374209 80.9001303 145.068383 80.6662926 144.765312 80.4984797 144.396117 80.4076957 143.966307L80.3884385 143.8561 81.6841742 143.605377C81.8052196 144.142639 82.0610655 144.533876 82.4572141 144.773578 82.8478605 145.016035 83.3402951 145.082159 83.937269 144.966441 84.4489608 144.867254 84.8368562 144.66337 85.1009552 144.363055 85.3650542 144.059984 85.4530872 143.682523 85.3650542 143.230671 85.2852743 142.806372 85.0982042 142.497791 84.8065949 142.299417 84.5672551 142.131351 84.2701437 142.029409 83.9097586 141.996346 83.5438715 141.963284 83.1697312 141.938487 82.7818358 141.919201 82.3884383 141.90267 82.0032939 141.869608 81.6236516 141.820014 81.2467603 141.773176 80.9193875 141.654703 80.6415333 141.464595 80.3939405 141.299283 80.1958663 141.100909 80.0418085 140.877739 79.8905018 140.654569 79.7832116 140.370784 79.7199378 140.02914L79.6924275 139.894136zM87.5559756 138.305218C87.4431834 137.936023 87.4184241 137.583358 87.495453 137.241715 87.5669798 136.902826 87.7017803 136.594245 87.9053566 136.313215 88.1061819 136.034941 88.3620278 135.792485 88.6646413 135.5886 88.9727568 135.381961 89.3001295 135.224915 89.6495105 135.114708 90.042908 134.993479 90.4280524 134.927355 90.8076947 134.921844 91.184586 134.913579 91.528465 134.971438 91.8475846 135.087156 92.1612022 135.205629 92.4390564 135.390227 92.6838982 135.635439 92.9287399 135.880651 93.1158101 136.197498 93.2423575 136.580469L93.2753699 136.685166 92.1199367 137.046096C92.0484099 136.867009 91.9466217 136.701697 91.8255764 136.552917 91.7017799 136.404137 91.5504732 136.285664 91.3744072 136.194742 91.1983412 136.106576 90.9975159 136.051472 90.7719313 136.037696 90.5463468 136.01841 90.2960029 136.054228 90.0236508 136.136883 89.4706935 136.307705 89.1075573 136.561183 88.9314913 136.88905 88.7581764 137.216918 88.7196619 137.550296 88.8242011 137.880919 88.8792217 138.076537 88.9590017 138.230828 89.0525367 138.343791 89.1460718 138.459509 89.2726192 138.561451 89.432179 138.644106 89.6275023 138.748804 89.8998544 138.795642 90.2409823 138.781866 90.5848612 138.7736 90.9479973 138.757069 91.3468969 138.735028 91.7430454 138.710231 92.144696 138.707476 92.5490976 138.726762 92.9534992 138.746048 93.3166354 138.845235 93.6412571 139.024323 93.9053561 139.164837 94.1364427 139.354945 94.331766 139.602913 94.5270892 139.85088 94.6701428 140.112623 94.7554248 140.393652L94.7966903 140.525901C94.9424949 140.991528 94.9727563 141.410317 94.8874743 141.790534 94.8021923 142.165239 94.6481346 142.498617 94.425301 142.790668 94.2052185 143.079963 93.9301154 143.322419 93.6082447 143.520793 93.286374 143.716411 92.9590013 143.867947 92.6233755 143.969889 92.2024677 144.102138 91.789813 144.162752 91.3799093 144.159997 90.9700056 144.159997 90.5931143 144.088362 90.2492354 143.945092 89.9026054 143.801822 89.5944899 143.592428 89.3276399 143.316909 89.0580388 143.038635 88.8544625 142.691481 88.7141599 142.269937L88.6783964 142.167995 89.9438709 141.776758C90.1226879 142.294733 90.4225503 142.655663 90.8379561 142.851282 91.2533618 143.049655 91.7485475 143.057921 92.3290151 142.878834 92.8297028 142.724543 93.19559 142.482086 93.4211746 142.151463 93.6495102 141.820841 93.6962777 141.435114 93.5642282 140.994284 93.4321787 140.58376 93.2148472 140.29722 92.9039807 140.131909 92.6508858 139.991394 92.3372682 139.922515 91.9768831 139.93078 91.6137469 139.939046 91.2368556 139.952822 90.8489602 139.977618 90.4583138 140.002415 90.0731694 140.013436 89.688025 140.007926 89.3083826 139.99966 88.9700058 139.917004 88.6673923 139.759958 88.4087954 139.624954 88.1859618 139.451377 88.0126469 139.244738 87.8393319 139.038099 87.7017803 138.76809 87.5999921 138.434712L87.5559756 138.305218zM99.2506101 140.516809C99.3496472 140.753755 99.3441451 140.976926 99.239606 141.1753 99.1350668 141.379184 98.9700049 141.527964 98.7389182 141.62164 98.5105826 141.718072 98.2877491 141.729093 98.0704176 141.662968 97.8530861 141.591333 97.6990284 141.437043 97.5972402 141.202851L97.5834851 141.161524C97.4816969 140.916312 97.4844479 140.695896 97.5917382 140.503033 97.7045304 140.31017 97.8695923 140.164145 98.0979279 140.070468 98.3290146 139.974037 98.5490971 139.957506 98.7609265 140.01812 98.9755069 140.078734 99.1350668 140.233025 99.2341039 140.478236L99.2506101 140.516809z"/>
      <polygon points="102.63 139.879 98.325 132.03 99.458 131.407 101.29 134.752 105.621 132.369 103.786 129.027 104.919 128.401 109.222 136.251 108.088 136.873 106.176 133.385 101.849 135.766 103.761 139.254"/>
      <polygon points="112.023 134.308 106.903 126.968 107.962 126.227 113.084 133.567"/>
      <path d="M115.904529,126.434206 C116.141118,126.233077 116.314432,126.018172 116.418972,125.792246 C116.52076,125.569076 116.570278,125.33764 116.570278,125.103449 C116.570278,124.866502 116.523511,124.637822 116.427225,124.411896 C116.330939,124.18597 116.198889,123.973821 116.036578,123.778202 C115.860512,123.574318 115.673442,123.403496 115.472617,123.262982 C115.269041,123.122467 115.051709,123.028791 114.831627,122.976442 C114.606042,122.924093 114.377706,122.929604 114.141118,122.992973 C113.904529,123.053587 113.673442,123.183081 113.439605,123.381455 L111.703704,124.858237 L114.242906,127.853129 L115.904529,126.434206 Z M117.092974,123.003994 C117.403841,123.367679 117.612919,123.74514 117.728463,124.136377 C117.841255,124.527614 117.874267,124.913341 117.819247,125.296312 C117.764226,125.679284 117.632177,126.048479 117.423098,126.403899 C117.211269,126.756563 116.938917,127.076165 116.60054,127.362705 L114.988435,128.734789 L116.740842,130.803937 L115.753222,131.641515 L109.967803,124.816909 L112.705079,122.486018 C113.02695,122.216009 113.368078,122.00937 113.736716,121.874366 C114.102603,121.736606 114.471241,121.675992 114.837129,121.695279 C115.208518,121.71181 115.571654,121.810997 115.932039,121.995594 C116.292424,122.177437 116.625299,122.450201 116.933415,122.816641 L117.092974,123.003994 Z"/>
      <polygon points="122.801 125.396 116.121 119.445 116.985 118.477 119.83 121.012 123.112 117.318 120.267 114.78 121.125 113.813 127.802 119.767 126.947 120.734 123.976 118.089 120.691 121.784 123.662 124.429"/>
      <path d="M130.382382 114.000859C130.742767 113.780444 131.056384 113.463597 131.325985 113.044808 131.592836 112.628774 131.755146 112.212741 131.807416 111.791196 131.859686 111.369652 131.823922 110.964639 131.700126 110.573402 131.57908 110.182165 131.370002 109.81297 131.086646 109.468571 130.800538 109.124172 130.45666 108.823857 130.055009 108.567624 129.653358 108.308636 129.237953 108.118528 128.811543 107.9973 128.37688 107.878826 127.964225 107.840254 127.557072 107.884337 127.152671 107.92842 126.770277 108.063424 126.407141 108.286595 126.041254 108.51252 125.724886 108.834877 125.449782 109.259177 125.174679 109.683476 125.012368 110.107775 124.954597 110.532075 124.902327 110.956374 124.938091 111.361387 125.061887 111.749869 125.188434 112.135595 125.397513 112.502036 125.686371 112.838169 125.972478 113.179812 126.316357 113.480128 126.718008 113.739116 127.119658 113.998104 127.535064 114.185457 127.966976 114.301175 128.398888 114.416893 128.822547 114.449955 129.2297 114.403117 129.636852 114.356278 130.021997 114.221274 130.382382 114.000859zM130.902327 107.556469C131.469039 107.922909 131.922959 108.347209 132.264087 108.837633 132.607966 109.330812 132.839053 109.846032 132.954596 110.39156 133.07289 110.939843 133.075641 111.496391 132.973853 112.06396 132.869314 112.628774 132.651983 113.171547 132.321859 113.689522 131.986233 114.204743 131.581831 114.631798 131.105903 114.96242 130.629975 115.293043 130.118283 115.516214 129.573578 115.634687 129.028874 115.75316 128.462162 115.755915 127.873441 115.642952 127.287471 115.52999 126.709755 115.290288 126.151295 114.926603L125.87069 114.747515C125.30948 114.38383 124.85556 113.954021 124.517183 113.460842 124.173304 112.967663 123.944968 112.446932 123.826674 111.898649 123.70838 111.355876 123.702877 110.796573 123.804666 110.231759 123.909205 109.66419 124.129287 109.121417 124.464913 108.606197 124.792286 108.096486 125.191185 107.677698 125.667114 107.34983 126.13754 107.021962 126.651983 106.798792 127.193936 106.683074 127.738641 106.564601 128.308104 106.55909 128.896825 106.669298 129.491048 106.77675 130.066013 107.013697 130.624472 107.377382L130.902327 107.556469zM133.842629 102.404264C133.971927 102.120479 134.035201 101.855981 134.035201 101.605258 134.03245 101.357291 133.982932 101.12861 133.886645 100.913706 133.787608 100.701556 133.647306 100.514203 133.462987 100.348892 133.28417 100.180825 133.075091 100.045821 132.844005 99.9383683 132.601914 99.8254055 132.359823 99.7510154 132.114981 99.7096876 131.872891 99.6683597 131.639053 99.6683597 131.413468 99.7179531 131.190635 99.7647914 130.984307 99.8667334 130.797237 100.023779 130.607416 100.17807 130.453358 100.392975 130.32406 100.668494L129.366701 102.745907 132.923785 104.393511 133.842629 102.404264zM133.476742 98.7922092C133.911405 98.9905829 134.260786 99.2468156 134.530387 99.5526417 134.799988 99.8557126 134.987058 100.197356 135.09985 100.566552 135.212643 100.935747 135.245655 101.324229 135.201638 101.737508 135.160373 102.148031 135.04483 102.553044 134.860511 102.952546L133.971927 104.875669 136.43135 106.019073 135.886645 107.192784 127.773854 103.434705 129.281419 100.169804C129.457485 99.7868329 129.68307 99.4562101 129.958173 99.180691 130.233276 98.9024168 130.544142 98.6930224 130.88527 98.5552629 131.226398 98.4147482 131.600538 98.3513788 132.002189 98.3651548 132.406591 98.3789307 132.821996 98.4863831 133.253908 98.687512L133.476742 98.7922092zM6.27977935 51.8288907L8.15873379 52.5066675 8.69518491 51.0188648C9.02530868 50.0986313 8.65391944 49.79005 8.18624411 49.6192282 7.87812859 49.5090206 7.14635424 49.4318753 6.82173254 50.3273121L6.27977935 51.8288907zM2.92077003 50.6138519L4.7061894 51.2585664 5.19312196 49.9002576C5.42971065 49.239012 4.91801882 48.8036919 4.55488267 48.6714428 4.14222796 48.5226625 3.63878922 48.6190942 3.41870671 49.2279912L2.92077003 50.6138519zM6.61265415 48.2306124C7.10233774 47.5280389 8.12847245 47.1974161 9.01980662 47.5197733L9.14910509 47.5666116C10.7502054 48.1479567 10.978541 49.6633113 10.3210445 51.4900024L9.00330043 55.1406293.601650565 52.1016546 1.78184303 48.8257335C2.43383747 47.0265943 3.5232459 45.8556385 5.12984823 46.4342284L5.25914671 46.4838218C6.08445613 46.7813824 6.56038456 47.4508936 6.5906459 48.2223468L6.61265415 48.2306124zM6.79807367 41.5977676L8.94938022 42.7301507 9.59037053 41.5096015C10.0993113 40.5370194 9.7279221 39.9391431 9.13369932 39.6250514 8.64951779 39.3688187 7.97276407 39.357798 7.50783977 40.2477244L6.79807367 41.5977676zM10.3056387 37.7405013C11.3895451 38.3108257 11.8627225 39.3963706 11.650893 40.6527374L15.4225571 40.024554 15.6673989 40.1540479 14.5504801 42.2865651 10.7237955 42.8376032 10.3881696 43.4823177 13.1612093 44.9398133 12.1103153 46.9511021 4.20110004 42.7990305 5.98651941 39.3853499C6.85859636 37.7157046 8.42393322 36.7513881 10.1103155 37.6385593L10.3056387 37.7405013zM12.9235202 32.1416794C13.261897 32.5218956 13.6580455 33.0591577 13.9661611 33.5027433L15.1078391 35.177899 16.5081141 33.2299795 14.5603838 32.6761863C14.0404389 32.5246508 13.4049507 32.3207668 12.9400263 32.1196379L12.9235202 32.1416794zM18.3072886 33.7452001L16.1669862 36.7235607 17.1023368 38.0928902 15.7323232 39.9967266 15.5314979 39.8507015 10.5081146 31.9129986 11.944153 29.9209961 21.0500669 32.1692313 21.2481411 32.3125012 19.9001358 34.1970513 18.3072886 33.7452001zM17.1279214 27.4573051C15.6588707 26.0604237 16.3466285 24.297102 17.4635473 23.1151254 18.662997 21.8532483 20.1485539 21.211289 21.5295717 22.3188754L21.6588701 22.442859 20.1678111 24.0133174C19.7716626 23.6909601 19.2627218 23.6468771 18.7235196 24.2144463 18.1925706 24.776505 18.1650603 25.28346 18.5144413 25.6168381 18.9408511 26.0246062 19.3397507 25.8510292 19.8734508 25.5231616 20.679503 25.0354929 21.8431892 24.2364878 22.7757889 24.2089359 23.3012359 24.1951599 24.0192551 24.4210855 24.5089387 24.8894678L24.6079758 24.9858995C26.1650596 26.4681918 25.4250321 28.2921277 24.2255824 29.5512496 22.9243446 30.9205791 21.4030242 31.526721 19.889957 30.3337236L19.7496543 30.2014745 21.2792278 28.5924434C21.8954588 29.1214399 22.5144409 28.9506182 23.0839044 28.3499867 23.6148535 27.7934383 23.65887 27.1652549 23.2902317 26.8125906 22.9408508 26.4792126 22.6574945 26.4213536 21.9257202 26.8098354 20.9683613 27.2727073 19.8459404 28.1791649 18.9105898 28.2039616 18.3851428 28.2149824 17.6753767 27.9807912 17.2297096 27.5509815L17.1279214 27.4573051zM23.4010983 21.0644373C22.1191177 19.4939789 23.021456 17.8325993 24.2786773 16.8049133 25.6239317 15.7083476 27.1755134 15.2592517 28.4024734 16.5266391L28.5152657 16.6671538 26.8453896 18.0337282C26.4905066 17.6645327 25.9898189 17.5570803 25.387343 18.0530145 24.7876181 18.5406831 24.6995851 19.0421278 25.0021986 19.4140784 25.3763389 19.87144 25.7889936 19.7502116 26.3639591 19.4939789 27.2222809 19.1110075 28.4712492 18.4635378 29.4010978 18.5599695 29.9237937 18.6095629 30.6032985 18.9236546 31.0324594 19.4471407L31.1204924 19.5545931C32.4767509 21.218728 31.5083878 22.9324563 30.1686355 24.029022 28.7078379 25.2247745 27.1259948 25.6325426 25.7724874 24.2632131L25.651442 24.1116777 27.3653345 22.7092859C27.9127898 23.3126725 28.548278 23.2217512 29.1892684 22.6982651 29.7834911 22.2105964 29.9045365 21.5934338 29.5826658 21.1994417 29.2773014 20.827491 29.0049493 20.7310593 28.2319094 21.0231095 27.233285 21.3619979 25.9980719 22.1196752 25.0682233 22.0259987 24.5482784 21.9736501 23.8770267 21.6512928 23.4863803 21.1691346L23.4010983 21.0644373zM39.278676 17.4146369L37.8701479 18.2219076 34.3598319 15.4639623C34.0627205 15.2518126 33.2264069 14.4197452 32.8632708 14.0064667L32.8357605 14.0229978C33.1658842 14.5134217 33.6940823 15.4336552 33.9086627 15.9461206L35.4134769 19.792366 33.5290204 20.8751558 33.405224 20.6602509 30.2690482 12.4360083 32.1755129 11.3394426 37.1081122 15.1719121 37.1328715 15.1581362 36.3488276 8.94242715 38.2057737 7.87616856 43.658318 14.7751647 43.7848654 14.9873144 41.8398862 16.1031664 39.2236554 12.7501C38.8770254 12.2844728 38.3708356 11.5130196 38.1204918 10.9895334L38.0957325 11.0033094C38.3213171 11.5378163 38.577163 12.4552946 38.6376857 12.9457185L39.278676 17.4146369zM46.4354841 6.78786844C46.5042599 7.29482343 46.5235171 7.95882427 46.5290192 8.49884154L46.5235171 10.5211511 48.7766119 9.70837002 47.4836271 8.15444277C47.1424992 7.73289867 46.7325955 7.20665735 46.4657455 6.77960287L46.4354841 6.78786844zM49.9705595 11.1520897L46.5262682 12.3974356 46.5235171 14.0533049 44.322692 14.8495549 44.2374101 14.6153637 44.5757869 5.23394119 46.8811512 4.40187376 53.1177394 11.4083224 53.2030214 11.6397583 51.0269555 12.4277427 49.9705595 11.1520897zM52.6387848 5.2920757C52.2206281 3.31109397 53.7777118 2.25034576 55.3650569 1.91696775 57.0569412 1.55879302 58.6415353 1.87012951 59.1504761 3.56181628L59.1889906 3.73539326 57.0789495 4.18173406C56.9331448 3.69131021 56.5424984 3.36895296 55.7749606 3.53150918 55.021178 3.68855502 54.7130625 4.09081279 54.8120996 4.56195031 54.9386471 5.14054024 55.3595549 5.22044076 55.98679 5.25901342 56.9248917 5.31136203 58.3251667 5.30860684 59.1092107 5.81831702 59.5493757 6.1048568 60.0087979 6.69722269 60.1463495 7.35846833L60.1766108 7.49071746C60.6195269 9.59292755 58.9799122 10.6702069 57.2852768 11.0283816 55.4475879 11.4168634 53.8519897 11.0504232 53.2825262 9.21822169L53.2440117 9.02811357 55.4063224 8.570752C55.6126498 9.35873639 56.2206277 9.56537565 57.0294309 9.39455386 57.7804625 9.23750802 58.1683579 8.74432898 58.0638187 8.24839475 57.9647816 7.77725723 57.7639563 7.56510759 56.9413979 7.47418631 55.9015081 7.31438528 54.4627186 7.41908251 53.6814257 6.91212752 53.2412607 6.62558774 52.7955936 6.03322186 52.6662951 5.42432483L52.6387848 5.2920757z"/>
      <polygon points="60.626 1.061 67.85 .416 68.012 2.237 65.578 2.458 66.208 9.541 63.949 9.74 63.319 2.659 60.791 2.885"/>
      <polygon points="76.568 .575 76.505 2.41 72.582 2.272 72.521 3.928 75.856 4.041 75.792 5.929 72.461 5.816 72.4 7.554 76.323 7.689 76.263 9.535 70.067 9.323 70.373 .36"/>
      <path d="M81.355426,2.96449105 L80.9537754,5.36977206 L82.3155359,5.59569766 C83.3966913,5.77754021 83.8506115,5.23752294 83.9606527,4.57076692 C84.0486857,4.02799445 83.8506115,3.38052476 82.8602402,3.21521335 L81.355426,2.96449105 Z M86.1174613,5.09700824 C85.916636,6.30653672 85.036306,7.0972763 83.7763336,7.2928948 L85.5507489,10.6872891 L85.5067324,10.9600529 L83.1325923,10.5660607 L81.4104466,7.09452111 L80.6896764,6.97329274 L80.1752335,10.0728817 L77.935894,9.70093101 L79.4021937,0.86503614 L83.2013681,1.49872988 C85.0610653,1.81006637 86.4668423,2.99204295 86.1532247,4.87934821 L86.1174613,5.09700824 Z"/>
      <polygon points="98.093 5.666 97.487 7.396 93.633 6.049 93.012 7.832 96.313 8.983 95.691 10.766 92.417 9.622 91.317 12.783 89.174 12.036 92.117 3.58"/>
      <polygon points="100.331 6.655 102.369 7.655 99.233 14.077 102.631 15.744 101.841 17.367 96.399 14.7"/>
      <path d="M110.023649 14.4266332C109.657762 14.7765423 109.137817 15.1925761 108.705905 15.5176885L107.082796 16.7161962 109.071792 18.0441979 109.553223 16.0825025C109.685272 15.5590163 109.864089 14.917057 110.048408 14.4404091L110.023649 14.4266332zM108.626125 19.8626234L105.583484 17.8320482 104.251985 18.8156511 102.304255 17.5207117 102.441806 17.3140725 110.163952 12.0075762 112.199715 13.3631298 110.296001 22.5461786 110.15845 22.7500627 108.23823 21.4688993 108.626125 19.8626234zM114.89435 18.4638133C116.2286 16.9401932 118.01402 17.5573558 119.235478 18.6346351 120.539466 19.7807942 121.238228 21.241045 120.187334 22.6654783L120.071791 22.8004827 118.445932 21.370539C118.751296 20.9600156 118.778806 20.4503054 118.184584 19.9323297 117.609618 19.4226195 117.100677 19.4171091 116.784309 19.778039 116.390911 20.2243799 116.580732 20.6128617 116.927362 21.1363478 117.447307 21.9243322 118.291874 23.051205 118.352397 23.9852144 118.385409 24.5114558 118.187335 25.2360708 117.741668 25.745781L117.653635 25.847723C116.234102 27.4622644 114.385409 26.789998 113.08142 25.6438389 111.664639 24.3957378 111.004392 22.8969143 112.132315 21.3374767L112.261613 21.1942068 113.925987 22.659968C113.419797 23.2964169 113.612369 23.9108243 114.236854 24.456352 114.817321 24.9660621 115.439054 24.9853485 115.77468 24.602377 116.096551 24.2386919 116.146069 23.9521522 115.727913 23.2358027 115.229976 22.3017932 114.278119 21.2107379 114.220347 20.2767285 114.184584 19.7504871 114.393662 19.0341377 114.803566 18.5685106L114.89435 18.4638133z"/>
      <polygon points="116.993 28.91 123.785 23.105 125.257 24.832 122.591 27.108 124.957 29.88 127.617 27.604 129.089 29.329 122.299 35.134 120.827 33.409 123.568 31.07 121.199 28.296 118.464 30.638"/>
    </g>
  </g>
</svg>
