<svg xmlns="http://www.w3.org/2000/svg" style="display:none">
  <symbol id="icon-bandcamp" viewbox="0 0 97.75 97.75"><path fill="currentColor" d="M48.875 0C21.882 0 0 21.882 0 48.875S21.882 97.75 48.875 97.75 97.75 75.868 97.75 48.875 75.868 0 48.875 0zm15.96 70.857H12.593l20.32-43.965h52.244L64.835 70.857z"/></symbol>
  <symbol id="icon-facebook" viewbox="0 0 24 24"><path fill="currentColor" d="M9 8H6v4h3v12h5V12h3.642L18 8h-4V6.333C14 5.378 14.192 5 15.115 5H18V0h-3.808C10.596 0 9 1.583 9 4.615V8z"/></symbol>
  <symbol id="icon-instagram" viewbox="0 0 24 24"><path fill="currentColor" d="M12 2.163c3.204 0 3.584.012 4.85.07 3.252.148 4.771 1.691 4.919 4.919.058 1.265.069 1.645.069 4.849 0 3.205-.012 3.584-.069 4.849-.149 3.225-1.664 4.771-4.919 4.919-1.266.058-1.644.07-4.85.07-3.204 0-3.584-.012-4.849-.07-3.26-.149-4.771-1.699-4.919-4.92-.058-1.265-.07-1.644-.07-4.849 0-3.204.013-3.583.07-4.849.149-3.227 1.664-4.771 4.919-4.919 1.266-.057 1.645-.069 4.849-.069zM12 0C8.741 0 8.333.014 7.053.072 2.695.272.273 2.69.073 7.052.014 8.333 0 8.741 0 12c0 3.259.014 3.668.072 4.948.2 4.358 2.618 6.78 6.98 6.98C8.333 23.986 8.741 24 12 24c3.259 0 3.668-.014 4.948-.072 4.354-.2 6.782-2.618 6.979-6.98.059-1.28.073-1.689.073-4.948 0-3.259-.014-3.667-.072-4.947-.196-4.354-2.617-6.78-6.979-6.98C15.668.014 15.259 0 12 0zm0 5.838a6.162 6.162 0 1 0 0 12.324 6.162 6.162 0 0 0 0-12.324zM12 16a4 4 0 1 1 0-8 4 4 0 0 1 0 8zm6.406-11.845a1.44 1.44 0 1 0 0 2.881 1.44 1.44 0 0 0 0-2.881z"/></symbol>
  <symbol id="icon-youtube" viewbox="0 0 24 24"><path d="M19.615 3.184c-3.604-.246-11.631-.245-15.23 0C.488 3.45.029 5.804 0 12c.029 6.185.484 8.549 4.385 8.816 3.6.245 11.626.246 15.23 0C23.512 20.55 23.971 18.196 24 12c-.029-6.185-.484-8.549-4.385-8.816zM9 16V8l8 3.993L9 16z"/></symbol>
  <symbol id="icon-spotify" viewbox="0 0 24 24">
    <path fill="currentColor" d="M12 0C5.373 0 0 5.373 0 12s5.373 12 12 12 12-5.373 12-12S18.627 0 12 0zm5.09 17.418a.75.75 0 0 1-1.03.27c-2.83-1.73-6.39-2.12-10.59-1.15a.75.75 0 1 1-.33-1.46c4.55-1.03 8.48-.59 11.61 1.27.36.22.48.69.27 1.03zm1.47-3.17a.937.937 0 0 1-1.29.34c-3.24-1.98-8.18-2.56-11.98-1.39a.937.937 0 1 1-.58-1.78c4.25-1.39 9.77-.74 13.45 1.56.45.28.59.88.34 1.29zm.1-3.18c-3.72-2.2-9.84-2.4-13.32-1.3a1.125 1.125 0 1 1-.66-2.15c4.02-1.24 10.86-1 15.15 1.5a1.125 1.125 0 0 1-1.17 1.95z"/>
  </symbol>
  <symbol id="icon-apple-music" viewbox="0 0 50 50">
    <path fill="currentColor" d="M37 4H13c-4.962 0-9 4.037-9 9v24c0 4.963 4.038 9 9 9h24c4.962 0 9-4.037 9-9V13c0-4.963-4.038-9-9-9zm-2 23v4.021h-.002A5.005 5.005 0 0 1 30 36h-.5c-.987 0-1.933-.42-2.596-1.152a3.519 3.519 0 0 1-.887-2.705C26.195 30.38 27.787 29 29.643 29H31c1.103 0 2-.897 2-2v-9.795l-12 2.25V34c0 2.757-2.243 5-5 5h-.5c-.987 0-1.933-.42-2.596-1.152a3.519 3.519 0 0 1-.887-2.705C12.195 33.38 13.787 32 15.643 32H17c1.103 0 2-.897 2-2V15.353a2 2 0 0 1 1.633-1.966l12.591-2.36c.439-.083.891.033 1.234.319.345.286.542.707.542 1.154V27z"/>
  </symbol>
</svg>
