<?xml version="1.0" standalone="no"?>
<!DOCTYPE svg PUBLIC "-//W3C//DTD SVG 20010904//EN"
 "http://www.w3.org/TR/2001/REC-SVG-20010904/DTD/svg10.dtd">
<svg version="1.0" xmlns="http://www.w3.org/2000/svg"
 width="567.000000pt" height="567.000000pt" viewBox="0 0 567.000000 567.000000"
 preserveAspectRatio="xMidYMid meet">
<metadata>
Created by potrace 1.11, written by Peter Selinger 2001-2013
</metadata>
<g transform="translate(0.000000,567.000000) scale(0.100000,-0.100000)"
fill="#000000" stroke="none">
<path d="M1315 5315 c-109 -20 -186 -42 -279 -81 -389 -163 -699 -530 -863
-1022 -37 -112 -88 -318 -99 -397 -3 -27 -8 -52 -9 -55 -2 -3 -6 -37 -10 -75
-4 -39 -9 -73 -11 -76 -6 -11 -18 -279 -18 -409 0 -129 11 -336 18 -348 2 -4
6 -29 10 -57 18 -154 83 -309 163 -388 105 -106 255 -119 496 -44 51 16 66 25
62 37 -9 29 -44 195 -50 240 -3 25 -8 56 -10 70 -2 14 -6 48 -9 75 -3 28 -8
72 -11 99 -22 197 -22 619 0 816 2 19 7 64 10 100 4 36 9 74 11 85 3 11 6 36
9 55 13 98 57 293 90 401 109 350 272 606 447 699 238 127 467 -65 544 -455
32 -162 38 -231 38 -410 -1 -128 -9 -293 -18 -341 -2 -10 -7 -41 -10 -67 -8
-54 -10 -62 -25 -129 -21 -90 -57 -186 -88 -234 -13 -21 -14 -21 -67 -3 -47
15 -119 28 -191 34 -11 0 -40 -4 -64 -11 -127 -37 -173 -229 -75 -315 49 -43
86 -52 200 -51 l112 2 21 -93 c37 -162 55 -315 67 -554 l6 -122 -33 -5 c-758
-123 -1146 -396 -1255 -881 -19 -86 -25 -323 -11 -403 61 -329 325 -592 652
-650 22 -4 94 -7 160 -6 129 0 217 19 332 69 328 146 584 516 698 1010 9 38
25 120 29 145 3 14 9 57 15 95 13 82 19 137 27 260 3 50 9 93 12 97 7 6 182
-16 210 -27 7 -3 11 -8 9 -12 -8 -12 -20 -226 -20 -338 1 -101 9 -271 18 -335
15 -112 25 -167 46 -247 81 -309 237 -519 457 -614 144 -63 396 -73 611 -24
313 72 525 268 575 531 47 248 -52 505 -268 692 -42 37 -49 36 74 6 30 -7 66
-15 80 -18 14 -3 70 -14 125 -25 106 -21 123 -24 225 -40 183 -29 270 -36 440
-35 163 2 279 23 378 71 73 36 73 36 152 114 104 101 165 246 185 438 3 31 8
66 11 79 4 21 3 22 -18 11 -13 -7 -39 -22 -59 -35 -57 -36 -171 -68 -279 -79
-30 -4 -66 -8 -80 -11 -31 -5 -358 -6 -385 0 -11 2 -71 7 -133 11 -63 3 -121
8 -130 9 -9 2 -53 7 -97 11 -44 4 -91 8 -105 10 -14 2 -54 6 -90 10 -36 4 -76
8 -90 10 -14 2 -70 9 -125 15 -110 12 -156 17 -212 25 -21 3 -63 7 -93 10 -30
2 -71 7 -90 10 -87 12 -128 17 -170 20 -25 2 -72 6 -105 10 -33 3 -75 8 -94
10 -18 2 -35 6 -38 9 -3 3 -1 25 6 48 6 24 27 104 47 178 19 74 49 178 66 230
17 52 31 100 32 105 4 15 49 152 116 350 98 289 130 393 155 508 27 125 30
259 9 320 -39 110 -146 177 -307 192 -34 4 -67 8 -73 10 -17 5 -28 -7 -61 -65
-229 -409 -416 -887 -547 -1390 -34 -134 -90 -392 -95 -442 -1 -4 -60 -7 -131
-6 -149 2 -134 -9 -145 106 -25 275 -137 543 -299 716 l-46 49 27 18 c45 30
142 130 188 194 147 206 236 517 237 825 0 83 -2 100 -22 205 -16 85 -19 96
-46 179 -64 192 -152 343 -269 461 -125 127 -246 195 -405 229 -81 17 -282 18
-375 1z m400 -3447 c-2 -90 -6 -187 -9 -215 -3 -29 -8 -77 -11 -105 -3 -29 -7
-64 -10 -78 -2 -14 -7 -45 -10 -70 -29 -211 -114 -472 -198 -602 -155 -240
-348 -240 -427 1 -30 92 -35 136 -34 296 3 365 106 615 324 783 32 25 207 109
240 116 26 6 134 33 137 35 1 1 0 -72 -2 -161z m1570 -43 c245 -118 422 -462
416 -808 -4 -287 -150 -435 -342 -350 -110 49 -181 180 -216 398 -10 62 -10
461 0 570 10 105 16 163 23 203 6 39 12 38 119 -13z"/>
</g>
</svg>
